<?xml version="1.0" standalone="no"?>
<!DOCTYPE svg PUBLIC "-//W3C//DTD SVG 20010904//EN"
 "http://www.w3.org/TR/2001/REC-SVG-20010904/DTD/svg10.dtd">
<svg version="1.0" xmlns="http://www.w3.org/2000/svg"
 width="640.000000pt" height="360.000000pt" viewBox="0 0 640.000000 360.000000"
 preserveAspectRatio="xMidYMid meet">

<g transform="translate(0.000000,360.000000) scale(0.100000,-0.100000)"
fill="#000000" stroke="none">
<path d="M0 1800 l0 -1800 3200 0 3200 0 0 1361 0 1361 -29 -7 c-32 -7 -45 4
-35 29 4 10 18 16 35 16 l29 0 0 420 0 420 -3200 0 -3200 0 0 -1800z m1507
1388 c4 -7 8 -19 9 -26 2 -8 10 -23 20 -33 17 -19 17 -19 -7 -10 -13 5 -23 15
-21 21 2 7 -3 10 -12 7 -19 -8 -38 16 -30 37 7 19 30 21 41 4z m267 -3 c12 -9
25 -11 41 -5 17 6 27 5 35 -5 16 -19 5 -45 -19 -45 -24 0 -36 -41 -15 -53 8
-4 12 -12 9 -16 -2 -5 5 -11 16 -14 22 -6 22 0 3 60 -5 15 -4 15 7 -2 13 -20
15 -25 18 -45 2 -21 23 -9 33 20 8 23 13 28 23 20 14 -12 40 11 27 25 -4 5 -1
5 6 1 7 -4 12 -1 12 8 0 20 40 32 51 15 12 -19 11 -29 -1 -29 -5 0 -10 -7 -10
-15 0 -8 -4 -15 -10 -15 -5 0 -10 5 -10 10 0 19 -25 9 -65 -25 -33 -29 -36
-35 -20 -35 17 -1 17 -3 -5 -12 -20 -9 -22 -12 -8 -15 10 -3 15 -10 11 -20 -5
-13 -2 -13 26 1 17 9 29 21 26 26 -4 6 3 10 14 10 12 0 21 7 21 15 0 8 5 15
11 15 15 0 39 -26 32 -34 -4 -3 3 -6 15 -6 12 0 22 -4 22 -10 0 -18 31 -10 51
13 25 31 24 38 -8 32 -26 -5 -26 -5 -5 4 12 6 22 15 22 21 0 16 47 12 54 -5 3
-8 16 -15 29 -15 33 0 49 -22 39 -50 -6 -16 -11 -19 -16 -12 -10 17 -26 15
-26 -3 0 -23 37 -18 55 8 l17 22 -7 -24 c-7 -21 -5 -23 18 -17 17 4 29 1 38
-11 12 -15 12 -16 -3 -10 -11 4 -18 2 -18 -6 0 -9 -3 -8 -9 1 -4 8 -11 14 -15
14 -12 -1 -46 -44 -46 -59 0 -11 -8 -13 -30 -8 -40 9 -65 -1 -78 -30 -15 -32
-8 -31 30 0 16 14 35 25 41 25 7 0 -3 -9 -20 -20 -18 -11 -33 -25 -33 -30 0
-7 14 -10 33 -8 22 2 32 8 32 20 0 9 4 20 9 25 5 4 7 -4 4 -19 -6 -35 9 -37
18 -3 3 14 11 25 18 25 6 0 4 5 -4 10 -13 9 -13 10 0 11 30 2 55 7 75 14 l20
8 -20 -16 c-11 -9 -23 -17 -27 -17 -12 0 -48 -33 -48 -44 0 -5 8 -2 18 6 9 8
27 14 39 13 14 -1 19 3 16 12 -5 13 5 17 46 13 15 -1 21 2 16 10 -4 6 -13 9
-21 6 -8 -3 -14 1 -14 9 0 8 3 15 7 15 13 0 53 -44 54 -59 0 -10 2 -12 6 -4 7
18 108 -72 124 -108 6 -16 23 -35 38 -42 20 -9 27 -21 29 -51 4 -46 21 -74 54
-90 26 -13 35 -50 18 -71 -13 -16 9 -77 42 -112 28 -30 28 -129 0 -153 -34
-28 -34 -71 -2 -132 6 -10 7 -24 4 -33 -3 -8 -1 -15 6 -15 6 0 8 6 4 13 -4 6
13 -8 37 -33 24 -25 69 -67 99 -94 30 -26 49 -45 43 -41 -7 3 -13 1 -13 -5 0
-7 7 -9 15 -6 21 8 107 -50 133 -91 23 -34 30 -93 12 -93 -5 0 -10 5 -10 10 0
6 -7 10 -15 10 -8 0 -15 -9 -15 -21 0 -11 5 -17 10 -14 6 3 10 2 10 -4 0 -16
-40 -38 -102 -56 -92 -26 -122 -84 -78 -150 11 -16 20 -38 20 -47 0 -31 -22
-67 -49 -76 -14 -6 -47 -17 -73 -27 -42 -15 -48 -20 -48 -46 0 -24 7 -32 49
-53 27 -14 51 -32 55 -41 12 -32 6 -73 -15 -96 -11 -13 -18 -18 -14 -11 4 7 0
12 -10 12 -11 0 -15 -5 -12 -14 6 -15 -11 -36 -28 -36 -5 0 -2 7 8 14 16 12
16 15 2 29 -10 11 -11 17 -3 19 7 3 -8 12 -32 22 -30 12 -46 14 -48 7 -2 -6
-12 -1 -23 13 -10 13 -32 29 -49 34 -30 11 -30 11 -30 -25 0 -31 3 -35 20 -29
53 16 62 16 26 -1 l-39 -19 26 -17 c35 -23 47 -21 48 6 2 22 2 22 6 -1 5 -24
8 -24 58 -7 14 4 13 2 -4 -8 -18 -11 -20 -16 -10 -20 8 -3 4 -6 -10 -6 -21 -1
-22 -3 -10 -18 13 -15 12 -15 -8 -4 -18 9 -23 9 -23 -1 0 -10 -3 -9 -9 1 -8
12 -14 12 -42 1 -28 -12 -30 -15 -13 -21 18 -7 18 -8 1 -8 -12 -1 -16 -5 -11
-14 6 -9 5 -9 -8 0 -8 7 -18 10 -21 6 -4 -3 -7 0 -7 9 0 16 -46 42 -60 33 -5
-3 -11 -1 -15 5 -3 5 -16 10 -28 10 -20 1 -20 2 -4 11 9 6 15 14 12 18 -2 5 2
8 11 7 9 0 21 7 28 18 6 10 21 30 34 44 27 30 24 36 -13 22 -15 -6 -30 -9 -32
-6 -2 2 12 9 31 16 20 6 36 15 36 18 0 4 -15 17 -34 29 l-34 22 -12 -30 c-7
-16 -15 -28 -17 -25 -3 2 1 14 8 27 10 20 9 25 -12 42 -24 20 -24 20 -1 13 20
-7 22 -4 23 26 l2 33 6 -31 6 -31 37 27 37 27 -22 20 c-12 11 -33 26 -46 33
-22 12 -23 11 -19 -14 3 -14 1 -26 -3 -26 -5 0 -9 14 -9 30 l0 31 -30 -16
c-39 -20 -53 -19 -15 2 l30 17 -25 7 c-20 6 -18 7 14 6 27 -1 47 -9 67 -28 16
-15 37 -29 47 -31 17 -5 18 0 15 46 -1 28 0 45 3 38 5 -10 9 -10 22 0 15 12
16 11 2 -6 -13 -16 -12 -20 10 -38 23 -19 24 -19 31 -1 7 16 8 16 8 1 1 -16 6
-16 59 4 31 12 64 28 73 35 12 10 18 11 21 3 6 -19 58 10 58 33 0 16 -3 17
-15 7 -8 -7 -12 -16 -9 -21 7 -12 -18 -11 -51 1 -24 9 -26 8 -20 -12 6 -22 6
-22 -14 2 -26 32 -22 46 12 42 21 -3 26 0 21 13 -5 13 -9 13 -22 3 -13 -11
-15 -10 -9 5 5 13 1 17 -16 17 -31 0 -77 -45 -78 -78 l-1 -27 -7 25 c-5 19
-14 26 -40 28 -20 2 -38 -2 -43 -10 -6 -8 -7 8 -3 42 11 87 10 90 -22 91 -21
1 -18 3 12 8 30 5 44 2 57 -11 31 -31 66 -33 88 -7 46 54 45 57 -17 74 -75 21
-105 33 -81 34 9 1 29 13 44 29 l26 27 -17 -28 c-18 -28 -18 -28 6 -24 13 2
18 2 12 0 -22 -7 -14 -20 15 -27 15 -4 35 -9 45 -12 13 -4 17 1 17 25 0 18 -5
31 -12 32 -10 0 -10 2 0 6 6 2 9 10 6 15 -4 6 -2 8 3 5 12 -8 36 17 26 26 -3
4 -1 7 5 7 7 0 12 15 12 35 l0 36 -32 -16 c-29 -14 -31 -14 -14 0 19 15 19 15
-2 15 -29 0 -28 -23 1 -50 16 -16 18 -20 4 -15 -13 6 -16 3 -11 -11 4 -13 1
-12 -8 4 -13 21 -15 21 -32 5 -11 -11 -15 -12 -11 -4 6 11 4 13 -11 8 -18 -7
-18 -7 0 8 11 8 16 15 10 15 -5 0 -3 4 5 9 11 7 11 15 1 45 -14 43 -36 47 -80
14 -34 -25 -37 -35 -12 -41 10 -3 6 -5 -10 -6 -16 0 -28 -7 -29 -13 0 -10 -2
-10 -6 -1 -3 9 -15 7 -46 -7 -23 -11 -34 -15 -24 -8 55 38 55 37 -25 38 l-78
0 -1 58 c-2 79 -2 81 -19 93 -12 8 -10 9 7 4 17 -5 25 0 37 24 21 39 20 41 -6
41 l-23 1 23 13 23 12 -41 38 c-23 21 -40 39 -38 42 2 2 22 -14 43 -36 22 -22
42 -40 46 -40 4 0 12 14 18 30 6 17 6 30 1 30 -5 0 -7 6 -5 13 3 6 -3 23 -13
35 -17 22 -21 23 -63 12 -35 -10 -40 -14 -25 -20 19 -6 19 -7 1 -14 -11 -4
-23 -1 -30 6 -14 15 -37 79 -31 85 2 3 9 -11 15 -30 12 -34 13 -35 46 -24 19
6 35 16 35 22 0 7 -22 24 -50 39 -32 18 -50 23 -50 15 0 -7 -6 -4 -14 7 -13
17 -11 22 21 48 l36 30 -29 23 c-29 23 -50 31 -40 14 4 -5 -3 -7 -14 -4 -23 6
-27 23 -5 23 17 0 19 18 5 54 -12 31 -28 32 -80 6 -43 -22 -51 -45 -23 -66 10
-7 15 -16 10 -20 -4 -4 -21 2 -37 15 -29 21 -31 21 -55 4 -13 -10 -25 -24 -25
-31 0 -6 -4 -11 -9 -10 -10 3 -115 -102 -131 -131 -13 -26 -2 -33 56 -33 30
-1 44 -5 44 -15 0 -7 -9 -14 -20 -14 -75 -5 -106 -3 -113 6 -6 6 -7 4 -4 -6 3
-9 0 -22 -6 -28 -8 -8 0 -11 33 -11 24 0 41 -3 37 -6 -3 -3 10 -28 28 -54 41
-58 54 -100 32 -100 -8 0 -18 11 -21 25 -4 14 -11 25 -16 25 -12 0 -12 -22 -2
-70 5 -22 3 -48 -4 -70 l-13 -35 0 33 c-1 30 -3 31 -21 20 -12 -8 -20 -24 -20
-40 0 -16 -5 -28 -13 -28 -7 0 -20 -9 -30 -20 -16 -20 -16 -20 26 -20 23 0 37
4 31 8 -6 4 -4 13 8 25 17 16 18 16 18 -1 0 -32 -22 -42 -88 -42 -43 0 -68 -5
-78 -15 -14 -13 -6 -15 69 -15 68 0 87 3 100 18 23 25 48 88 41 105 -5 15 22
32 30 18 7 -11 -42 -106 -69 -131 -21 -19 -33 -21 -151 -22 -112 0 -126 -2
-109 -14 18 -14 18 -14 -1 -14 -10 0 -32 7 -48 15 -41 22 -65 20 -59 -5 8 -28
-26 -39 -44 -14 -12 17 -11 20 6 28 20 9 20 9 -1 40 -12 17 -26 36 -32 41 -6
6 -19 22 -29 38 -10 15 -26 27 -38 27 -24 0 -37 29 -19 40 18 11 42 0 36 -16
-6 -15 -1 -17 32 -8 32 9 30 44 -3 44 -14 0 -26 3 -26 8 -1 4 -3 17 -4 28 -1
12 -5 26 -9 33 -4 6 -1 11 8 11 8 0 17 6 19 13 4 9 8 8 16 -3 7 -10 11 -11 11
-3 0 7 13 28 30 46 16 19 26 38 22 42 -4 5 -2 6 3 3 6 -4 28 3 50 13 24 12 41
15 43 9 2 -5 24 -10 49 -10 42 0 44 1 32 18 -13 16 -12 16 7 -1 14 -12 35 -17
68 -16 26 1 42 5 36 9 -7 5 -6 15 3 33 8 15 17 24 21 20 3 -4 5 4 4 18 -2 18
2 24 14 23 11 -1 32 18 53 46 51 70 146 150 225 190 85 43 84 43 71 72 l-12
23 17 -22 16 -22 24 28 c30 37 30 41 -3 42 -22 1 -20 3 12 9 43 9 86 3 66 -9
-8 -6 -9 -15 -2 -34 12 -32 31 -34 55 -8 16 18 16 19 -11 30 -20 8 -21 10 -5
7 12 -2 22 0 22 5 0 4 7 6 15 3 8 -4 15 -2 15 4 0 5 -7 12 -15 16 -8 3 -15 0
-15 -6 0 -7 -5 -6 -15 2 -9 7 -15 8 -15 2 0 -5 -9 -8 -20 -5 -11 3 -17 9 -14
14 3 5 -4 9 -15 9 -12 0 -21 -5 -21 -12 0 -9 -3 -9 -12 0 -24 24 -170 5 -164
-22 2 -6 1 -8 -1 -3 -6 10 -16 9 -56 -8 -28 -12 -34 -19 -30 -36 4 -16 11 -19
29 -15 13 4 24 2 24 -3 0 -14 -37 -24 -54 -14 -14 8 -16 12 -16 34 0 8 -5 7
-15 -1 -13 -11 -13 -15 -3 -22 9 -6 6 -7 -8 -4 -31 9 -67 -33 -58 -68 6 -25 4
-26 -18 -21 -24 6 -51 -12 -47 -31 4 -26 -2 -46 -14 -41 -8 3 -21 -7 -31 -24
-10 -17 -13 -29 -6 -29 6 0 13 7 16 15 4 8 10 15 15 15 17 0 9 -15 -19 -34
-17 -11 -28 -27 -28 -40 1 -15 -4 -20 -16 -18 -24 4 -24 -36 -1 -53 15 -11 15
-13 -6 -24 -20 -11 -22 -10 -21 6 4 30 1 43 -9 43 -12 0 -91 -52 -91 -59 0 -3
-19 -7 -41 -8 -23 -2 -47 -7 -54 -13 -18 -15 -66 12 -55 30 7 12 13 12 33 1
41 -22 143 6 165 45 5 9 13 17 18 17 5 1 8 5 7 9 -2 5 3 8 10 8 14 0 65 74 74
108 5 23 24 47 96 128 35 39 37 43 17 46 -19 3 -20 5 -7 22 12 17 14 17 30 1
9 -9 17 -12 17 -6 0 6 7 11 15 11 8 0 15 7 15 16 0 8 5 12 11 8 11 -7 89 26
89 38 0 4 -10 10 -21 13 -17 6 -19 9 -8 17 9 6 2 7 -21 2 -19 -3 -37 -10 -38
-15 -2 -5 -8 -6 -13 -3 -12 7 -112 -40 -129 -61 -7 -9 -9 -19 -5 -23 4 -4 10
-1 12 6 3 6 12 12 20 12 13 0 13 -3 3 -15 -7 -8 -19 -15 -26 -15 -8 0 -14 -4
-14 -10 0 -5 14 -10 30 -10 17 0 30 -4 30 -10 0 -5 -3 -10 -7 -11 -73 -4 -103
-3 -106 6 -2 6 -13 5 -31 -4 -30 -16 -44 -8 -51 29 -6 31 -14 37 -25 20 -9
-13 -10 -13 -10 0 0 8 5 22 10 30 9 13 10 13 10 0 1 -12 3 -12 14 3 18 24 26
21 26 -8 0 -14 6 -28 14 -31 18 -7 56 13 56 29 0 7 4 18 9 26 8 12 12 13 25 1
14 -11 16 -10 10 3 -4 12 -1 15 14 12 12 -2 26 3 32 10 6 8 17 12 25 9 23 -9
27 14 5 36 -11 11 -20 24 -20 29 0 18 -29 33 -52 25 l-23 -8 25 -7 c19 -5 14
-7 -20 -6 -25 0 -63 -3 -85 -7 -22 -4 -59 -3 -83 2 -24 6 -42 6 -42 1 0 -5 -7
-9 -15 -9 -17 0 -19 -9 -7 -28 6 -9 14 -7 32 10 18 17 22 18 17 5 -4 -11 -1
-17 8 -17 8 0 15 -4 15 -10 0 -5 -11 -10 -25 -10 -15 0 -25 -6 -25 -15 0 -9
-6 -12 -15 -9 -8 4 -15 17 -15 29 0 13 -4 27 -10 30 -5 3 -10 19 -10 34 0 15
-3 31 -7 35 -5 4 -8 12 -8 18 0 6 -8 16 -17 21 -13 9 -21 7 -36 -6 -10 -9 -28
-17 -40 -17 -15 0 -20 -5 -16 -15 4 -8 1 -15 -5 -15 -6 0 -11 5 -11 11 0 5 -4
7 -10 4 -21 -13 -10 -35 18 -36 15 0 21 -3 15 -6 -7 -2 -13 -11 -13 -19 0 -27
-28 -14 -35 16 -4 17 -13 30 -21 30 -9 0 -13 -4 -10 -9 3 -5 -1 -12 -10 -15
-10 -4 -13 -13 -9 -26 4 -11 2 -20 -4 -20 -6 0 -11 6 -11 14 0 22 -29 27 -58
10 -26 -15 -26 -15 -4 1 12 10 22 23 22 30 0 14 -43 35 -68 34 -10 0 -12 -3
-4 -6 18 -7 15 -20 -8 -26 -13 -3 -18 -1 -13 6 4 6 -2 8 -15 5 -14 -4 -20 -2
-15 5 4 7 0 8 -11 4 -12 -5 -16 -3 -13 5 2 7 11 13 20 13 9 0 16 5 14 10 -1 6
-5 9 -9 7 -5 -1 -8 4 -8 10 -1 7 -9 -3 -20 -22 -20 -37 -25 -54 -12 -47 4 3 5
-17 4 -44 -4 -56 4 -60 56 -29 17 11 32 18 32 15 0 -3 -18 -16 -40 -30 -23
-14 -45 -36 -50 -48 -8 -21 -9 -21 -10 -2 -1 13 -3 15 -7 6 -3 -8 5 -22 18
-33 20 -16 21 -18 5 -16 -14 2 -22 -7 -31 -37 l-13 -40 3 63 c1 35 -1 58 -5
52 -4 -7 -10 -8 -13 -3 -4 5 -21 8 -39 6 -29 -3 -30 -2 -10 7 12 5 22 14 22
19 0 5 15 8 33 7 27 -1 32 3 34 24 2 21 1 22 -5 6 -7 -16 -10 -17 -14 -5 -3 8
0 23 8 34 7 10 12 28 9 39 -15 78 -15 78 -30 62 -8 -8 -15 -21 -15 -30 0 -8
-4 -18 -10 -21 -5 -3 -10 -1 -10 6 0 8 -4 8 -15 -1 -18 -15 -20 -35 -3 -24 7
4 8 3 4 -5 -4 -6 -11 -9 -16 -6 -11 7 -50 -48 -50 -69 0 -9 -7 -16 -15 -16 -8
0 -19 -9 -25 -19 -9 -18 -7 -19 18 -15 15 2 33 7 40 9 6 2 12 0 12 -5 0 -6 -7
-10 -16 -10 -8 0 -22 -7 -31 -15 -8 -8 -19 -13 -24 -10 -5 4 -6 -1 -3 -10 5
-12 1 -14 -17 -11 -13 3 -26 5 -29 6 -3 2 -8 2 -12 1 -5 0 -8 6 -8 14 0 8 -4
15 -10 15 -5 0 -10 5 -10 11 0 5 4 8 9 4 5 -3 18 6 29 20 18 22 21 23 27 7 7
-15 9 -14 14 6 3 13 10 23 14 22 10 -1 72 68 89 99 7 14 24 35 37 48 14 15 21
32 18 43 -3 12 3 24 18 34 20 13 29 36 38 98 3 20 43 68 57 68 5 0 10 14 10
30 0 48 26 49 66 1 20 -22 42 -41 50 -41 8 0 14 -4 14 -9 0 -5 14 -12 30 -16
35 -8 41 -24 8 -22 -13 0 -45 20 -72 44 -44 39 -51 42 -69 30 -21 -14 -47 -83
-39 -106 3 -9 0 -12 -10 -9 -9 4 -22 -8 -36 -33 -24 -41 -17 -55 21 -44 18 6
20 5 10 -6 -21 -22 -16 -28 53 -61 64 -30 68 -31 95 -16 22 13 27 14 22 2 -7
-18 15 -18 60 1 32 13 58 45 37 45 -19 0 -10 15 16 27 24 11 26 10 21 -7 -3
-13 0 -20 9 -20 24 0 29 31 9 46 -23 17 -12 18 15 2 15 -10 23 -9 39 6 21 19
21 19 1 33 -26 18 -25 26 6 40 22 10 24 10 14 -3 -9 -10 -10 -17 -1 -28 8 -10
8 -21 1 -40 -9 -25 -8 -27 12 -22 23 6 23 6 0 -6 -20 -10 -23 -16 -16 -47 4
-20 7 -44 6 -54 -1 -14 2 -15 12 -5 30 30 48 68 41 85 -17 38 -14 42 21 26 19
-9 34 -21 34 -25 0 -5 -4 -7 -9 -3 -5 3 -22 -11 -37 -30 -23 -31 -25 -38 -13
-50 8 -7 30 -16 49 -20 21 -4 30 -3 22 2 -9 7 -8 14 6 29 11 11 22 26 25 34 4
11 6 9 7 -5 1 -18 2 -18 11 3 5 13 6 28 3 33 -3 5 2 16 10 25 20 20 21 44 1
44 -8 0 -15 5 -15 11 0 8 -5 7 -16 -2 -12 -10 -14 -24 -10 -54 5 -39 -2 -31
-18 19 -6 19 -7 19 -21 0 -13 -16 -14 -16 -9 -1 3 9 1 17 -5 17 -6 0 -11 -5
-11 -11 0 -5 -5 -7 -11 -3 -8 4 -2 12 15 21 33 17 32 21 -2 63 -32 37 -58 34
-48 -6 5 -17 2 -24 -9 -24 -11 0 -13 7 -8 30 7 38 -2 38 -77 0 -62 -31 -68
-38 -49 -57 8 -8 7 -11 -2 -10 -38 1 -51 -6 -75 -44 -14 -22 -28 -38 -32 -35
-3 4 5 20 17 37 18 24 20 33 10 39 -10 7 -10 11 0 24 7 9 10 23 7 32 -5 13 -9
14 -21 4 -12 -10 -15 -10 -15 3 0 23 16 29 30 12 22 -26 48 -18 55 18 13 66
16 72 27 54 5 -10 16 -17 24 -17 12 0 12 -4 4 -20 -7 -12 -16 -17 -27 -13 -12
5 -14 3 -8 -6 4 -8 2 -17 -6 -22 -9 -6 -4 -7 16 -3 46 10 125 53 125 67 0 21
-31 58 -42 51 -7 -5 -8 -2 -3 5 5 9 14 6 34 -12 27 -26 43 -25 76 2 20 16 20
16 3 -5 -23 -27 -23 -34 3 -34 21 0 21 0 -2 -18 l-22 -19 28 -36 29 -36 24 40
c20 33 26 38 42 29 16 -8 18 -8 14 5 -3 8 -10 13 -14 10 -5 -3 -15 1 -22 9 -8
8 -22 15 -31 17 -12 3 -14 8 -6 19 8 11 12 12 16 3 6 -17 43 2 43 23 0 8 7 14
17 12 21 -4 38 51 18 58 -7 3 -22 1 -32 -4 -10 -5 -24 -7 -30 -5 -7 3 -24 -8
-39 -24 l-26 -28 26 36 c14 20 23 38 20 42 -10 9 6 27 24 27 9 0 25 -7 36 -15z
m-362 -57 c-7 -7 -12 -8 -12 -2 0 14 12 26 19 19 2 -3 -1 -11 -7 -17z m43 12
c3 -5 1 -10 -4 -10 -6 0 -11 5 -11 10 0 6 2 10 4 10 3 0 8 -4 11 -10z m195 0
c0 -5 -5 -10 -11 -10 -5 0 -7 5 -4 10 3 6 8 10 11 10 2 0 4 -4 4 -10z m-175
-49 c3 -5 1 -12 -5 -16 -5 -3 -10 1 -10 9 0 18 6 21 15 7z m-141 -32 c-3 -5
-10 -7 -15 -3 -5 3 -7 10 -3 15 3 5 10 7 15 3 5 -3 7 -10 3 -15z m51 11 c3 -5
-1 -10 -10 -10 -9 0 -13 5 -10 10 3 6 8 10 10 10 2 0 7 -4 10 -10z m692 -26
c-3 -3 -12 -4 -19 -1 -8 3 -5 6 6 6 11 1 17 -2 13 -5z m-819 -45 c-4 -27 -44
-45 -45 -21 -2 30 6 42 27 42 16 0 21 -5 18 -21z m-253 -30 c4 -5 -1 -19 -11
-30 -19 -21 -34 -11 -34 24 0 19 34 24 45 6z m315 -19 c0 -5 -4 -10 -10 -10
-5 0 -10 5 -10 10 0 6 5 10 10 10 6 0 10 -4 10 -10z m-128 -32 c-7 -7 -12 -8
-12 -2 0 14 12 26 19 19 2 -3 -1 -11 -7 -17z m161 8 c4 -9 -3 -16 -18 -18 -20
-4 -22 -3 -12 14 14 22 23 23 30 4z m4022 -38 c27 -4 30 -30 7 -58 l-18 -23
-42 27 c-42 26 -61 57 -23 36 31 -16 34 -13 27 28 -7 37 -6 37 11 15 10 -11
27 -23 38 -25z m-4452 10 c2 -7 0 -22 -6 -33 -6 -11 -14 -36 -18 -55 l-7 -35
-1 40 -2 40 -15 -35 c-15 -33 -16 -34 -30 -16 -18 26 -18 45 2 53 8 3 20 16
25 29 9 25 44 33 52 12z m332 -9 c-10 -15 -25 -10 -19 6 4 8 10 12 15 9 5 -3
7 -10 4 -15z m55 -79 c0 -5 -2 -10 -4 -10 -3 0 -8 5 -11 10 -3 6 -1 10 4 10 6
0 11 -4 11 -10z m-480 -49 c0 -19 -23 -35 -34 -24 -14 15 -5 43 14 43 13 0 20
-7 20 -19z m153 -1 c-3 -11 -12 -20 -19 -20 -12 0 -12 4 -2 20 7 11 16 20 19
20 4 0 5 -9 2 -20z m527 0 c-8 -5 -19 -10 -25 -10 -5 0 -3 5 5 10 8 5 20 10
25 10 6 0 3 -5 -5 -10z m-590 -16 c0 -8 -5 -12 -10 -9 -7 4 -9 -3 -5 -22 l5
-28 -11 29 c-9 22 -9 30 2 37 19 12 19 11 19 -7z m45 -24 c-3 -5 -12 -10 -18
-10 -7 0 -6 4 3 10 19 12 23 12 15 0z m812 -12 c-2 -7 3 -18 11 -24 8 -6 12
-16 8 -23 -11 -17 -32 3 -39 34 -3 17 0 25 10 25 8 0 13 -6 10 -12z m-477 -8
c0 -5 -4 -10 -10 -10 -5 0 -10 5 -10 10 0 6 5 10 10 10 6 0 10 -4 10 -10z
m-130 -10 c0 -5 -4 -10 -10 -10 -5 0 -10 5 -10 10 0 6 5 10 10 10 6 0 10 -4
10 -10z m395 0 c3 -5 -1 -10 -9 -10 -9 0 -16 5 -16 10 0 6 4 10 9 10 6 0 13
-4 16 -10z m-797 -32 c1 -36 -15 -53 -35 -36 -19 16 -16 36 7 43 11 3 20 11
20 16 0 5 2 9 3 9 2 0 4 -15 5 -32z m612 1 c0 -6 -4 -7 -10 -4 -5 3 -10 11
-10 16 0 6 5 7 10 4 6 -3 10 -11 10 -16z m-108 -11 c-7 -7 -12 -8 -12 -2 0 14
12 26 19 19 2 -3 -1 -11 -7 -17z m388 2 c0 -5 -4 -10 -9 -10 -5 0 -18 -3 -28
-6 -16 -5 -16 -4 1 10 23 18 36 20 36 6z m-100 -15 c0 -8 -7 -15 -15 -15 -7 0
-18 -8 -24 -17 -5 -10 -12 -15 -15 -12 -6 6 38 59 49 59 3 0 5 -7 5 -15z
m-763 -17 c-3 -8 -6 -5 -6 6 -1 11 2 17 5 13 3 -3 4 -12 1 -19z m543 -14 c0
-22 -13 -30 -42 -25 -5 0 -8 -6 -8 -14 0 -14 -2 -14 -23 0 -13 8 -27 12 -30 8
-4 -3 -7 -1 -7 5 0 7 11 12 25 12 15 0 28 7 32 18 14 38 53 36 53 -4z m840 16
c0 -5 -7 -7 -15 -4 -8 4 -15 8 -15 10 0 2 7 4 15 4 8 0 15 -4 15 -10z m-690
-18 c0 -19 -35 -28 -45 -11 -4 5 1 9 9 9 9 0 16 5 16 10 0 6 5 10 10 10 6 0
10 -8 10 -18z m111 -85 c11 -47 37 -63 31 -19 -2 12 2 22 8 22 7 0 10 -7 6
-15 -8 -21 8 -19 29 5 25 27 37 25 33 -5 -2 -14 -7 -24 -13 -23 -5 2 -9 6 -7
11 4 12 -6 8 -43 -15 -19 -13 -35 -30 -35 -40 0 -9 -6 -19 -12 -22 -9 -3 -8
-8 5 -16 25 -16 21 -37 -8 -42 -17 -4 -25 -1 -25 8 0 8 5 14 11 14 6 0 7 5 2
13 -4 6 -8 15 -9 20 -1 4 -2 9 -3 12 0 3 -11 0 -23 -6 -13 -7 -47 -11 -78 -9
-30 2 -77 4 -105 4 -45 1 -50 4 -53 25 -3 16 1 22 10 19 7 -3 19 2 27 9 7 8
21 11 30 8 9 -4 32 -9 51 -11 48 -6 70 -14 70 -24 0 -5 -8 -11 -17 -13 -14 -4
-13 -5 4 -6 14 -1 29 9 39 25 13 19 24 24 41 21 24 -4 33 8 11 16 -10 3 -10 7
0 19 9 12 10 18 2 23 -6 4 -8 16 -5 28 6 22 6 22 -12 -1 -20 -25 -37 -20 -23
7 5 9 11 25 15 36 6 19 7 19 20 -5 8 -14 19 -47 26 -73z m159 83 c0 -5 -4 -10
-10 -10 -5 0 -10 5 -10 10 0 6 5 10 10 10 6 0 10 -4 10 -10z m-550 -40 c-9 -5
-9 -9 -1 -14 6 -4 11 -11 11 -17 0 -5 -9 -4 -19 3 -18 11 -18 13 -3 36 10 16
18 20 20 12 3 -7 -1 -16 -8 -20z m4291 -7 c7 -16 15 -32 18 -37 2 -5 -4 -6
-13 -3 -15 6 -18 2 -20 -32 -2 -27 -25 -22 -41 9 -18 35 -12 58 11 39 12 -9
14 -6 14 20 0 38 12 40 31 4z m-4048 8 c4 -1 7 -14 7 -30 0 -21 -6 -32 -20
-36 -25 -8 -49 9 -45 33 1 9 0 11 -2 5 -5 -15 -23 -18 -23 -4 0 28 13 38 43
35 18 -1 35 -3 40 -3z m-566 -43 c-3 -8 -6 -5 -6 6 -1 11 2 17 5 13 3 -3 4
-12 1 -19z m4141 -37 c2 -12 -1 -28 -7 -35 -6 -8 -9 -21 -5 -30 7 -17 -11 -23
-21 -6 -3 5 -13 6 -22 3 -9 -4 -19 1 -25 12 -8 14 -12 15 -19 4 -14 -23 -18
-6 -9 35 4 20 16 46 26 57 17 18 18 18 48 1 17 -10 32 -28 34 -41z m-3493 39
c3 -5 1 -10 -4 -10 -6 0 -11 5 -11 10 0 6 2 10 4 10 3 0 8 -4 11 -10z m555 0
c0 -5 -4 -10 -10 -10 -5 0 -10 5 -10 10 0 6 5 10 10 10 6 0 10 -4 10 -10z
m-1031 -16 c-7 -8 -21 -13 -30 -11 -10 3 -20 0 -22 -6 -2 -6 -6 -4 -10 5 -5
13 0 16 24 16 16 -1 32 2 36 5 13 14 15 7 2 -9z m242 -20 c-17 -14 -30 -33
-29 -42 2 -9 -2 -17 -8 -17 -7 0 -20 -9 -30 -20 -11 -11 -16 -16 -12 -11 3 4
4 15 1 23 -3 8 0 13 8 11 8 -2 13 2 12 9 -3 13 62 73 78 73 6 0 -3 -12 -20
-26z m-391 12 c0 -3 -4 -8 -10 -11 -5 -3 -10 -1 -10 4 0 6 5 11 10 11 6 0 10
-2 10 -4z m895 -6 c11 -17 -5 -32 -21 -19 -8 6 -14 15 -14 20 0 12 27 11 35
-1z m-1005 -19 c0 -5 -9 -7 -20 -4 -11 3 -20 7 -20 9 0 2 9 4 20 4 11 0 20 -4
20 -9z m266 -28 c-10 -10 -19 5 -10 18 6 11 8 11 12 0 2 -7 1 -15 -2 -18z
m930 12 c-16 -17 -62 -20 -70 -6 -4 5 5 8 18 7 14 -2 30 1 38 5 21 14 31 10
14 -6z m-1089 -51 c-10 -11 -47 22 -47 41 0 18 3 17 26 -8 14 -16 24 -31 21
-33z m-57 30 c0 -2 -7 -4 -15 -4 -8 0 -15 4 -15 10 0 5 7 7 15 4 8 -4 15 -8
15 -10z m840 6 c0 -5 -4 -10 -10 -10 -5 0 -10 5 -10 10 0 6 5 10 10 10 6 0 10
-4 10 -10z m-554 -36 c-7 -25 -5 -26 21 -21 l28 5 -23 -19 c-23 -18 -25 -18
-47 -1 l-23 17 22 21 c28 29 29 29 22 -2z m4924 5 c9 0 17 -11 18 -26 2 -23
-1 -25 -26 -19 -15 4 -39 10 -54 13 -31 6 -30 5 -22 28 5 13 14 15 38 11 17
-4 38 -7 46 -7z m-5058 -8 c12 6 21 5 30 -4 10 -12 15 -12 26 0 16 15 32 17
32 3 0 -5 -5 -10 -10 -10 -6 0 -5 -6 2 -14 7 -8 16 -12 20 -9 4 2 5 -3 2 -11
-3 -9 -12 -12 -22 -9 -11 5 -14 2 -9 -10 3 -9 3 -17 -2 -17 -4 0 -8 -7 -8 -15
0 -18 9 -19 26 -2 10 10 11 9 6 -5 -4 -10 -13 -18 -21 -18 -8 0 -14 -9 -14
-21 0 -16 4 -19 20 -14 26 8 26 -9 0 -45 -14 -20 -19 -41 -17 -74 1 -26 -2
-46 -8 -47 -5 0 -4 -3 3 -6 17 -7 15 -42 -4 -50 -11 -4 -12 -8 -4 -13 7 -4 9
-13 5 -20 -6 -9 -13 -6 -26 11 -10 13 -19 19 -19 13 0 -17 -43 -32 -65 -23
-39 15 -51 10 -28 -12 13 -13 39 -23 67 -26 47 -6 60 -18 29 -27 -10 -2 -4 -4
12 -3 25 2 30 6 28 25 -4 32 6 27 23 -13 8 -20 25 -40 39 -45 30 -11 31 -16 8
-38 -16 -16 -16 -16 -10 0 7 19 -44 63 -66 55 -6 -2 4 -14 23 -25 19 -12 30
-22 25 -22 -6 0 -27 11 -47 25 -20 14 -47 25 -60 25 -22 -1 -22 -2 7 -25 17
-14 25 -25 19 -25 -6 0 -23 11 -38 25 -15 14 -45 28 -67 31 -28 5 -36 10 -27
15 7 5 8 9 2 9 -6 0 -16 11 -22 25 -7 14 -20 25 -31 25 -11 0 -26 3 -34 6 -14
5 -13 8 1 25 9 10 23 19 31 19 11 0 10 5 -5 21 -13 15 -15 23 -7 26 19 7 3 33
-21 34 l-21 0 22 9 c15 6 20 15 16 29 -3 13 -1 21 6 21 7 0 11 8 9 18 -2 11 3
26 11 35 12 15 10 17 -18 17 -30 0 -31 1 -20 22 8 14 14 18 17 10 5 -17 39
-15 46 4 3 9 4 20 0 25 -3 5 2 9 10 9 10 0 13 6 9 17 -5 13 -2 15 14 11 16 -4
23 0 27 15 4 17 8 18 20 8 10 -8 16 -9 21 -1 3 5 1 10 -4 10 -6 0 -11 7 -11
15 0 12 4 14 17 6 11 -6 24 -6 35 0z m383 -1 c3 -5 1 -10 -4 -10 -6 0 -11 5
-11 10 0 6 2 10 4 10 3 0 8 -4 11 -10z m539 -8 c5 -3 1 -9 -9 -14 -11 -7 -21
-6 -28 1 -20 20 -29 12 -13 -11 21 -29 20 -38 -3 -38 -28 0 -34 47 -9 65 18
12 36 11 62 -3z m256 -3 c0 -14 -17 -10 -23 5 -4 10 -1 13 9 9 7 -3 14 -9 14
-14z m-760 1 c0 -5 -2 -10 -4 -10 -3 0 -8 5 -11 10 -3 6 -1 10 4 10 6 0 11 -4
11 -10z m110 -17 c0 -8 -12 -13 -35 -13 -41 0 -39 3 -20 -43 12 -30 12 -67 -1
-67 -1 0 -15 11 -30 25 -19 17 -31 22 -39 15 -6 -5 -15 -7 -18 -3 -12 11 -8
23 8 23 8 0 15 8 15 18 1 37 120 82 120 45z m535 6 l20 -9 -20 1 c-36 2 -46
-1 -40 -11 3 -5 2 -10 -3 -10 -6 0 -13 7 -16 16 -3 8 -2 12 3 9 5 -3 12 -1 16
5 7 12 13 12 40 -1z m-1361 -37 c-8 -2 -14 -8 -14 -13 0 -5 -9 -9 -20 -9 -28
0 -38 30 -15 46 15 11 21 10 40 -4 17 -12 19 -18 9 -20z m556 28 c0 -5 -5 -10
-11 -10 -5 0 -7 5 -4 10 3 6 8 10 11 10 2 0 4 -4 4 -10z m467 -45 c-15 -32
-23 -32 -31 0 -9 34 0 48 24 35 15 -8 17 -13 7 -35z m463 15 c0 -5 -4 -10 -10
-10 -5 0 -10 5 -10 10 0 6 5 10 10 10 6 0 10 -4 10 -10z m-832 -22 c2 -10 -6
-19 -20 -23 -13 -4 -26 -12 -29 -17 -3 -5 -12 -2 -19 7 -11 13 -9 15 14 15 20
0 26 5 26 21 0 24 23 21 28 -3z m207 12 c3 -5 1 -10 -4 -10 -6 0 -11 5 -11 10
0 6 2 10 4 10 3 0 8 -4 11 -10z m3075 -4 c0 -8 -16 -24 -36 -35 -28 -17 -35
-18 -31 -6 4 8 3 15 -1 15 -4 0 -8 9 -8 20 0 16 7 20 38 20 26 0 38 -4 38 -14z
m1205 -16 c-4 -19 -3 -30 4 -30 26 0 8 -18 -30 -29 -44 -13 -66 -6 -35 11 18
10 18 11 -5 30 l-24 19 32 -6 c25 -5 34 -2 43 14 16 30 23 26 15 -9z m-4155 6
c0 -3 -4 -8 -10 -11 -5 -3 -10 -1 -10 4 0 6 5 11 10 11 6 0 10 -2 10 -4z
m-564 -21 c-3 -23 -12 -26 -13 -5 -1 11 2 20 7 20 4 0 7 -7 6 -15z m972 -7
c-2 -13 -11 -24 -20 -26 -17 -3 -19 13 -5 36 13 20 29 14 25 -10z m-910 -5
c-10 -2 -26 -2 -35 0 -10 3 -2 5 17 5 19 0 27 -2 18 -5z m846 -2 c3 -5 -1 -11
-9 -15 -9 -3 -15 0 -15 9 0 16 16 20 24 6z m-224 -10 c0 -6 -4 -13 -10 -16 -5
-3 -10 1 -10 9 0 9 5 16 10 16 6 0 10 -4 10 -9z m2665 -49 c0 -19 5 -32 12
-32 7 0 13 9 13 21 0 11 5 17 10 14 25 -16 -5 -70 -33 -59 -12 4 -17 17 -17
41 0 40 -20 41 -31 2 l-7 -24 -1 26 c-1 29 17 51 39 47 10 -2 15 -15 15 -36z
m-3203 7 c-21 -19 -42 -19 -42 1 0 7 17 13 54 19 6 0 0 -8 -12 -20z m892 6
c-4 -8 -10 -15 -15 -15 -4 0 -6 7 -3 15 4 8 10 15 15 15 4 0 6 -7 3 -15z
m-1459 -23 c-1 -16 -5 -34 -9 -41 -4 -6 -3 -18 3 -25 8 -10 7 -16 -3 -26 -22
-18 -32 -6 -39 44 -8 57 -1 76 28 76 19 0 22 -5 20 -28z m695 -2 c0 -5 -7 -10
-15 -10 -8 0 -15 5 -15 10 0 6 7 10 15 10 8 0 15 -4 15 -10z m-200 -10 c0 -5
-7 -10 -15 -10 -8 0 -15 5 -15 10 0 6 7 10 15 10 8 0 15 -4 15 -10z m935 1 c3
-5 1 -12 -5 -16 -5 -3 -10 1 -10 9 0 18 6 21 15 7z m260 -11 c13 -5 14 -9 5
-9 -8 0 -24 4 -35 9 -13 5 -14 9 -5 9 8 0 24 -4 35 -9z m3113 -11 c1 -9 -6
-26 -16 -40 l-20 -23 -41 28 c-43 30 -47 46 -7 39 13 -3 27 0 31 7 10 16 49 8
53 -11z m-3217 -2 c-1 -12 -15 -9 -19 4 -3 6 1 10 8 8 6 -3 11 -8 11 -12z
m3372 -11 c3 -7 -9 -28 -27 -45 -25 -24 -35 -28 -44 -19 -16 16 -15 48 2 48 7
0 19 7 26 15 16 19 36 19 43 1z m-4410 -10 c7 -19 -18 -40 -38 -32 -15 6 -20
28 -8 39 12 12 41 7 46 -7z m3217 -48 c0 -10 -5 -18 -11 -18 -6 0 -9 -7 -5
-15 6 -16 -19 -22 -28 -6 -3 4 -18 6 -33 3 -26 -5 -27 -4 -13 13 11 14 11 17
2 11 -11 -7 -12 -4 -4 10 14 27 92 28 92 2z m591 -9 c44 -22 48 -46 6 -41 -25
3 -26 1 -21 -27 7 -35 2 -37 -45 -13 -39 19 -57 48 -23 38 17 -6 19 -3 15 14
-4 14 -1 20 11 20 10 0 13 6 10 15 -8 20 -1 19 47 -6z m-2894 -16 c-3 -3 -11
-2 -17 2 -9 6 -9 10 1 16 14 8 27 -7 16 -18z m83 18 c0 -6 -4 -13 -10 -16 -5
-3 -10 1 -10 9 0 9 5 16 10 16 6 0 10 -4 10 -9z m-993 -27 c-9 -9 -28 6 -21
18 4 6 10 6 17 -1 6 -6 8 -13 4 -17z m2813 18 c0 -4 -7 -18 -16 -30 -8 -12
-12 -27 -9 -32 8 -14 -4 -50 -17 -50 -5 0 -8 7 -4 15 3 8 1 15 -4 15 -18 0
-10 -39 10 -50 27 -15 43 -3 36 26 -4 13 -2 24 3 24 16 0 23 -20 17 -45 -11
-45 -86 -42 -101 4 -8 26 25 93 52 107 13 6 20 14 16 17 -3 4 -1 7 5 7 7 0 12
-3 12 -8z m-2856 -15 c-2 -7 -14 -18 -25 -25 -12 -8 -19 -10 -17 -5 3 4 8 16
11 26 4 9 13 17 21 17 9 0 13 -6 10 -13z m846 -1 c0 -3 -4 -8 -10 -11 -5 -3
-10 -1 -10 4 0 6 5 11 10 11 6 0 10 -2 10 -4z m277 -2 c-3 -3 -12 -4 -19 -1
-8 3 -5 6 6 6 11 1 17 -2 13 -5z m2587 -17 c9 -15 7 -22 -13 -38 -25 -20 -51
-25 -51 -9 0 5 11 12 25 16 32 8 35 38 3 31 -13 -2 -31 -8 -40 -12 -26 -11
-22 10 5 23 30 15 58 11 71 -11z m-3553 -10 c-13 -13 -26 -3 -16 12 3 6 11 8
17 5 6 -4 6 -10 -1 -17z m912 16 c-32 -6 -28 -18 10 -31 30 -11 30 -11 2 -5
-16 4 -49 7 -73 7 -27 -1 -39 3 -33 9 11 11 67 25 96 25 17 -1 16 -1 -2 -5z
m-1123 -23 c0 -5 -4 -10 -10 -10 -5 0 -10 5 -10 10 0 6 5 10 10 10 6 0 10 -4
10 -10z m-455 -23 c11 -11 9 -16 -7 -26 -24 -15 -44 -1 -35 23 8 19 24 20 42
3z m3959 -1 c-3 -7 6 -26 20 -43 38 -45 17 -63 -23 -18 -25 29 -29 39 -21 55
12 22 32 27 24 6z m1666 -23 c-1 -19 -18 -33 -33 -27 -26 10 -20 34 8 34 14 0
25 -3 25 -7z m-5083 -22 c0 -11 -5 -17 -9 -15 -11 7 -10 34 1 34 6 0 9 -9 8
-19z m735 7 c-9 -9 -15 -9 -24 0 -9 9 -7 12 12 12 19 0 21 -3 12 -12z m2354 0
c4 -6 2 -14 -4 -16 -7 -2 -12 -10 -12 -18 0 -15 -42 -29 -65 -20 -9 3 -23 -7
-39 -30 l-24 -35 -21 30 -22 31 32 19 c25 15 37 17 52 9 16 -8 24 -5 46 16 28
28 46 33 57 14z m-2306 -8 c0 -5 -4 -10 -9 -10 -6 0 -13 5 -16 10 -3 6 1 10 9
10 9 0 16 -4 16 -10z m-670 -20 c0 -5 -7 -10 -16 -10 -8 0 -12 5 -9 10 3 6 10
10 16 10 5 0 9 -4 9 -10z m830 0 c0 -5 -9 -10 -21 -10 -11 0 -17 5 -14 10 3 6
13 10 21 10 8 0 14 -4 14 -10z m1630 3 c0 -5 -10 -24 -22 -43 -25 -41 -36 -25
-13 19 14 28 35 42 35 24z m-2700 -20 c0 -7 -4 -13 -9 -13 -5 0 -11 6 -14 13
-3 8 1 14 9 14 8 0 14 -6 14 -14z m-400 -8 c13 -16 6 -35 -15 -35 -18 0 -28
17 -21 35 7 19 20 19 36 0z m4278 -27 c2 -11 -8 -17 -34 -21 -41 -7 -54 -3
-54 18 0 8 13 15 33 18 43 5 52 3 55 -15z m-4108 2 c0 -5 -2 -10 -4 -10 -3 0
-8 5 -11 10 -3 6 -1 10 4 10 6 0 11 -4 11 -10z m3735 -2 c42 19 52 14 23 -12
-16 -13 -28 -28 -28 -35 0 -6 -3 -11 -6 -11 -12 0 -33 35 -34 55 0 16 2 17 9
6 8 -12 14 -13 36 -3z m1235 -28 c0 -5 -4 -10 -10 -10 -5 0 -10 5 -10 10 0 6
5 10 10 10 6 0 10 -4 10 -10z m-4880 -10 c0 -5 -2 -10 -4 -10 -3 0 -8 5 -11
10 -3 6 -1 10 4 10 6 0 11 -4 11 -10z m4795 -10 c-9 -27 9 -25 28 3 19 29 34
14 17 -17 -23 -45 -53 -41 -65 7 -6 21 -4 27 10 27 12 0 15 -5 10 -20z m-435
-40 c27 -27 25 -46 -5 -66 -21 -14 -31 -15 -51 -6 -33 16 -40 37 -20 67 20 30
49 32 76 5z m-964 -40 c14 12 16 11 12 -10 -5 -39 -40 -37 -71 3 -33 43 -23
56 14 21 24 -23 31 -25 45 -14z m-1746 25 c0 -2 -14 -12 -31 -21 -17 -8 -28
-11 -24 -4 4 6 17 15 29 20 27 11 26 11 26 5z m-236 -20 c-4 -8 -11 -12 -16
-9 -6 4 -5 10 3 15 19 12 19 11 13 -6z m124 -12 c-2 -10 5 -23 17 -30 19 -12
19 -12 -6 -13 -34 0 -39 6 -25 35 13 29 19 32 14 8z m1321 -4 c7 11 12 10 22
-8 8 -11 24 -21 36 -21 13 0 32 -9 43 -20 19 -19 21 -28 24 -142 1 -29 -51
-58 -65 -37 -5 8 -9 10 -9 4 -1 -5 -8 6 -16 25 -10 23 -14 50 -10 80 4 33 2
52 -9 65 -15 20 -15 20 -26 1 -11 -18 -12 -18 -25 5 -7 13 -13 32 -14 42 0 15
3 15 20 5 17 -11 22 -10 29 1z m-1279 -3 c0 -2 -7 -7 -16 -10 -8 -3 -12 -2 -9
4 6 10 25 14 25 6z m938 -35 c3 -10 0 -10 -17 -2 -23 13 -28 2 -8 -18 10 -11
8 -12 -11 -6 -13 4 -29 2 -37 -5 -24 -20 -19 12 6 44 19 24 23 26 42 13 12 -7
23 -19 25 -26z m1426 24 c11 -8 16 -18 13 -22 -4 -4 -13 -1 -19 5 -18 18 -30
14 -24 -6 4 -13 1 -19 -9 -19 -9 0 -15 9 -15 22 0 38 21 45 54 20z m604 -46
c3 -18 -22 -49 -40 -49 -5 0 -8 6 -5 13 3 8 1 20 -3 27 -5 8 -6 18 -3 23 8 14
48 3 51 -14z m-1342 -33 c3 -8 -2 -26 -11 -40 -16 -24 -16 -26 -1 -26 9 0 16
-4 16 -10 0 -5 -16 -10 -35 -10 l-36 0 16 30 c19 37 19 38 -7 43 -23 4 -23 4
2 15 34 15 50 14 56 -2z m-3389 -29 c-4 -15 -47 -22 -47 -9 0 30 12 41 32 31
10 -6 17 -16 15 -22z m3768 -16 c0 -58 -57 -71 -71 -16 -8 33 12 57 45 53 22
-3 26 -8 26 -37z m-2081 4 c-4 -8 -8 -15 -10 -15 -2 0 -4 7 -4 15 0 8 4 15 10
15 5 0 7 -7 4 -15z m2406 5 c0 -5 -4 -10 -10 -10 -21 0 -9 -26 20 -43 37 -22
30 -43 -18 -50 -40 -7 -59 1 -24 10 31 8 28 18 -14 49 -33 26 -35 29 -18 41
21 15 64 17 64 3z m603 -19 c6 -24 0 -31 -25 -31 -21 0 -24 20 -6 38 17 17 25
15 31 -7z m-4495 -12 c4 -19 -27 -34 -41 -20 -14 14 0 43 20 39 10 -2 19 -10
21 -19z m2580 -3 c3 -16 0 -18 -22 -12 -28 7 -34 -2 -14 -22 16 -16 45 -15 51
1 2 6 7 9 11 5 4 -3 3 -16 -4 -27 -12 -24 -58 -29 -78 -9 -16 16 -15 75 1 82
24 10 52 1 55 -18z m-1110 -41 c0 -25 -5 -45 -11 -45 -5 0 -7 13 -3 31 3 17 6
38 6 45 0 8 2 14 5 14 2 0 4 -20 3 -45z m3699 3 c-3 -8 -6 -5 -6 6 -1 11 2 17
5 13 3 -3 4 -12 1 -19z m-601 -28 c18 0 36 -4 39 -10 4 -6 -11 -10 -39 -10
-32 0 -48 -5 -55 -17 -8 -14 -10 -7 -10 32 0 48 1 49 16 28 11 -16 26 -23 49
-23z m-4610 -9 c-9 -14 -33 -14 -41 -1 -4 6 -1 18 6 26 11 13 14 13 27 0 8 -8
11 -19 8 -25z m3232 23 c30 -9 28 -27 -3 -22 -36 7 -41 -8 -8 -26 l28 -15 -27
-1 c-32 0 -37 -16 -8 -25 11 -3 20 -11 20 -16 0 -11 0 -11 -39 2 -29 10 -31
14 -25 48 11 66 13 68 62 55z m-3147 -16 c0 -10 2 -10 6 0 6 16 40 15 50 -2 4
-8 15 -16 23 -18 24 -5 29 -20 13 -37 -14 -13 -17 -13 -32 5 -17 21 -51 38
-51 26 0 -12 -39 -12 -46 -1 -9 15 3 39 21 39 8 0 15 -6 16 -12z m3475 -3 c-3
-9 1 -18 9 -21 8 -4 15 -16 15 -28 0 -12 5 -27 12 -34 16 -16 1 -29 -20 -16
-25 16 -56 78 -49 97 3 10 14 17 23 17 10 0 14 -5 10 -15z m-1249 -3 c6 -4 14
-19 18 -33 7 -29 -13 -53 -41 -47 -19 3 -39 51 -30 73 6 16 33 20 53 7z m350
-20 c-21 -23 -22 -39 -2 -22 19 16 34 5 17 -12 -7 -7 -12 -16 -12 -22 0 -6 5
-5 12 2 7 7 19 12 27 12 11 0 10 -4 -4 -20 -25 -28 -40 -25 -65 11 -21 29 -21
31 -5 50 10 10 25 19 33 19 13 0 13 -3 -1 -18z m2361 -9 c6 -10 6 -28 1 -40
-7 -20 -16 -23 -59 -23 -64 0 -66 18 -2 22 34 2 47 7 47 18 0 10 -13 16 -42
18 -57 4 -55 22 2 22 32 0 47 -5 53 -17z m-4948 -33 c0 -13 -7 -20 -20 -20
-19 0 -27 20 -13 33 13 14 33 6 33 -13z m-170 -26 c0 -8 -7 -14 -15 -14 -15 0
-21 21 -9 33 10 9 24 -2 24 -19z m1497 10 c-3 -3 -12 -4 -19 -1 -8 3 -5 6 6 6
11 1 17 -2 13 -5z m2728 -13 c-3 -5 -1 -12 5 -16 5 -3 10 -13 10 -21 0 -12 -4
-12 -19 -2 -17 10 -23 9 -40 -6 -12 -11 -21 -14 -21 -8 0 6 5 14 10 17 15 9
12 25 -5 25 -8 0 -15 5 -15 10 0 6 18 10 41 10 22 0 38 -4 34 -9z m-1755 -35
c0 -15 7 -26 18 -28 16 -5 62 -75 62 -96 0 -4 -20 -7 -45 -7 -36 0 -46 4 -54
23 -6 12 -15 22 -21 22 -11 0 -50 72 -50 92 0 9 3 9 12 0 19 -19 45 -14 51 9
7 27 27 15 27 -15z m1476 3 c10 -17 -13 -33 -51 -35 -33 -1 -34 0 -22 20 7 12
17 27 21 34 8 13 39 2 52 -19z m-2480 -25 c43 20 59 21 22 0 -34 -18 -35 -27
-5 -43 15 -8 16 -10 2 -5 -11 4 -32 8 -47 8 -14 1 -24 5 -21 9 3 5 -5 23 -17
40 l-21 32 26 -29 c26 -29 27 -29 61 -12z m-944 -16 c-16 -16 -35 3 -26 26 6
16 8 16 22 2 13 -12 14 -18 4 -28z m3048 -3 c0 -12 4 -13 19 -6 32 18 33 -14
0 -45 -16 -15 -29 -22 -29 -16 0 7 -7 12 -15 12 -10 0 -12 6 -8 18 6 15 5 15
-10 3 -15 -12 -17 -11 -17 2 0 15 36 47 52 47 5 0 8 -7 8 -15z m-562 -14 c3
-10 0 -12 -12 -8 -12 5 -20 -2 -29 -25 -7 -18 -16 -28 -19 -23 -4 6 0 25 8 43
14 34 43 41 52 13z m-2138 -11 c0 -13 -7 -20 -19 -20 -10 0 -21 9 -24 20 -4
16 0 20 19 20 17 0 24 -6 24 -20z m2860 -31 c0 -40 -7 -48 -27 -28 -13 13 -33
4 -33 -17 0 -17 -16 -19 -23 -1 -6 16 3 77 12 77 4 0 12 -5 18 -11 14 -14 33
-3 33 17 0 8 5 12 10 9 6 -3 10 -24 10 -46z m-812 29 c13 -16 10 -74 -5 -89
-6 -6 -21 -9 -34 -7 -21 3 -24 9 -27 47 -3 45 7 61 39 61 9 0 21 -6 27 -12z
m-810 -28 c12 -16 22 -34 22 -40 0 -13 -17 -13 -25 1 -5 7 -14 4 -26 -7 -18
-17 -19 -16 -19 23 0 62 15 69 48 23z m1181 -12 c-6 -21 -5 -36 2 -45 13 -15
-7 -18 -29 -4 -19 12 2 93 22 85 11 -4 12 -13 5 -36z m-3117 -10 c-16 -16 -37
4 -28 28 6 16 8 16 23 1 13 -13 15 -19 5 -29z m1368 32 c8 -5 11 -10 5 -10 -5
0 -17 5 -25 10 -8 5 -10 10 -5 10 6 0 17 -5 25 -10z m2683 -16 c48 -32 46 -58
-3 -62 -31 -3 -37 1 -47 28 -11 30 -8 60 6 60 3 0 23 -12 44 -26z m-3748 -4
c0 -22 -29 -18 -33 3 -3 14 1 18 15 15 10 -2 18 -10 18 -18z m752 -5 c6 -14 7
-23 2 -19 -13 8 -31 44 -22 44 4 0 13 -11 20 -25z m149 6 c-10 -11 -15 -25
-10 -32 4 -7 3 -10 -4 -5 -5 3 -13 0 -15 -6 -3 -8 -6 -5 -6 5 -1 11 9 27 22
38 29 24 35 24 13 0z m1282 -3 c27 -27 7 -78 -29 -78 -24 0 -47 69 -28 81 20
12 43 11 57 -3z m-290 -30 c18 -18 15 -25 -10 -24 -15 1 -24 -6 -26 -19 -4
-17 -2 -18 11 -6 21 17 43 5 26 -15 -16 -20 -47 -17 -59 5 -14 27 -13 37 6 55
19 19 36 20 52 4z m2237 -68 c27 0 16 -28 -14 -35 -17 -3 -33 -16 -40 -32
l-12 -25 -24 36 c-31 45 -31 46 0 46 15 0 31 10 42 26 16 26 17 26 25 5 4 -12
14 -21 23 -21z m-3145 26 c0 -3 -4 -8 -10 -11 -5 -3 -10 -1 -10 4 0 6 5 11 10
11 6 0 10 -2 10 -4z m1985 -14 c6 -4 16 -23 21 -43 10 -31 9 -38 -9 -52 -12
-9 -29 -17 -38 -17 -24 0 -35 20 -18 31 11 6 10 9 -3 14 -17 7 -32 50 -23 65
7 12 55 13 70 2z m-522 -17 c-11 -8 -23 -26 -25 -40 -5 -22 -2 -25 24 -25 37
0 33 -24 -5 -28 -22 -3 -29 2 -37 24 -16 41 4 84 38 84 26 0 26 0 5 -15z
m-2583 -8 c0 -8 -3 -17 -7 -20 -9 -9 -34 13 -27 24 8 14 34 11 34 -4z m3685
-8 c4 -12 12 -18 21 -15 10 4 14 -3 14 -24 0 -32 -16 -48 -33 -31 -6 6 -19 11
-29 11 -21 0 -25 49 -6 68 17 17 26 15 33 -9z m-2438 -20 c-24 -7 -43 4 -33
19 4 7 15 6 31 -1 l24 -12 -22 -6z m1658 -19 c-8 -25 13 -27 31 -2 11 14 13
14 13 2 0 -25 -27 -53 -44 -47 -12 5 -14 1 -9 -21 6 -26 6 -27 -11 -7 l-17 20
7 -20 c11 -34 11 -36 -7 -48 -20 -13 -48 6 -48 32 1 14 2 14 14 -1 7 -10 19
-18 26 -18 10 0 10 3 0 15 -7 9 -10 27 -7 44 4 20 2 31 -8 35 -28 10 -16 28
14 21 17 -3 32 -2 36 4 11 18 17 12 10 -9z m1785 -5 c5 -14 16 -25 22 -24 44
5 50 -13 16 -41 -26 -22 -52 -18 -85 13 -27 24 -28 34 -6 59 23 25 42 23 53
-7z m-4540 -41 c0 -25 -35 -12 -36 13 -1 19 2 21 17 12 11 -5 19 -17 19 -25z
m2364 17 c10 -11 15 -25 11 -30 -11 -18 -25 -12 -25 10 0 14 -5 19 -17 17 -20
-4 -31 -48 -13 -48 6 0 8 5 5 10 -9 15 11 12 24 -4 16 -19 -2 -30 -35 -22 -18
5 -24 13 -24 34 0 51 42 69 74 33z m2565 -41 c14 -63 14 -60 -3 -60 -8 0 -22
10 -30 22 -16 22 -16 22 -16 -15 0 -20 -4 -37 -9 -37 -12 0 -74 71 -67 77 3 3
13 0 21 -7 12 -10 19 -10 27 -2 9 9 9 12 0 12 -7 0 -12 7 -12 15 0 18 31 20
49 3 11 -11 12 -8 7 15 -5 20 -3 27 8 27 9 0 18 -18 25 -50z m-4823 19 c11
-19 -13 -34 -31 -19 -13 11 -13 15 -3 21 18 12 26 11 34 -2z m3154 -18 c19
-16 32 -32 28 -36 -7 -7 -78 45 -78 58 0 13 15 7 50 -22z m-2170 -4 c0 -2 -10
-12 -22 -23 l-23 -19 19 23 c18 21 26 27 26 19z m-100 -14 c-8 -4 -22 -13 -30
-22 -26 -27 -44 -25 -23 3 11 16 28 25 43 25 15 0 19 -3 10 -6z m2215 -13 c4
-12 -1 -29 -12 -43 -15 -20 -22 -23 -40 -14 -25 11 -31 45 -11 65 19 19 56 14
63 -8z m425 -23 c0 -11 -49 0 -67 15 -7 6 -10 14 -8 19 7 10 75 -21 75 -34z
m-2240 2 c0 -4 -8 -5 -18 -2 -10 2 -19 10 -19 18 0 10 4 11 19 2 10 -7 18 -15
18 -18z m3020 21 c33 0 37 -3 33 -20 -3 -11 -13 -20 -22 -20 -9 0 -25 -7 -36
-15 -17 -14 -20 -13 -32 7 -18 33 -17 62 3 54 9 -3 33 -6 54 -6z m-3085 -20
c-3 -5 15 -23 40 -41 25 -18 43 -34 41 -37 -3 -2 -11 0 -18 4 -7 5 -24 8 -38
7 l-25 -2 24 7 25 8 -35 22 c-29 19 -34 19 -37 5 -2 -8 2 -19 10 -24 7 -5 9
-9 4 -9 -5 0 1 -12 15 -27 16 -19 18 -23 4 -12 -11 9 -26 14 -32 12 -7 -3 -13
1 -13 7 0 8 -9 10 -27 6 l-28 -6 28 15 c28 16 39 65 15 65 -10 0 -9 3 1 9 16
10 53 2 46 -9z m-275 -3 c0 -2 -10 -12 -22 -23 l-23 -19 19 23 c18 21 26 27
26 19z m215 -27 c10 -11 16 -20 13 -20 -3 0 -13 9 -23 20 -10 11 -16 20 -13
20 3 0 13 -9 23 -20z m-255 -31 c0 -5 -4 -9 -10 -9 -5 0 -10 7 -10 16 0 8 5
12 10 9 6 -3 10 -10 10 -16z m-140 7 c0 -3 -4 -8 -10 -11 -5 -3 -10 -1 -10 4
0 6 5 11 10 11 6 0 10 -2 10 -4z m350 -26 c11 -7 11 -10 2 -10 -10 0 -10 -5
-1 -22 12 -23 12 -23 -10 -4 -33 30 -27 59 9 36z m184 -69 c-3 -3 -15 6 -27
18 l-22 24 27 -19 c14 -10 24 -21 22 -23z m2180 10 c15 -16 15 -19 1 -31 -8
-7 -15 -19 -15 -26 0 -8 -4 -14 -10 -14 -5 0 -10 9 -10 20 0 23 -10 26 -28 8
-19 -19 -15 9 6 37 21 29 34 31 56 6z m-2821 -24 c-15 -19 -30 -32 -32 -30 -5
3 49 63 57 63 2 0 -9 -15 -25 -33z m605 -42 c-3 -3 -9 2 -12 12 -6 14 -5 15 5
6 7 -7 10 -15 7 -18z m-282 6 c16 13 16 12 3 -8 -12 -20 -29 -31 -29 -19 0 2
-3 13 -6 23 -5 14 -4 15 4 4 9 -13 13 -13 28 0z m202 -42 c-3 -8 -7 -3 -11 10
-4 17 -3 21 5 13 5 -5 8 -16 6 -23z m-851 -31 c-2 -13 -4 -5 -4 17 -1 22 1 32
4 23 2 -10 2 -28 0 -40z m0 -50 c-3 -8 -6 -5 -6 6 -1 11 2 17 5 13 3 -3 4 -12
1 -19z m3430 -54 c-3 -3 -12 -4 -19 -1 -8 3 -5 6 6 6 11 1 17 -2 13 -5z m767
-140 c9 -3 16 -10 16 -15 0 -14 -24 -11 -46 6 -16 12 -17 14 -2 15 9 0 23 -3
32 -6z m-4244 -54 c0 -5 -5 -10 -11 -10 -5 0 -7 5 -4 10 3 6 8 10 11 10 2 0 4
-4 4 -10z m-29 -73 c-10 -9 -11 -8 -5 6 3 10 9 15 12 12 3 -3 0 -11 -7 -18z
m-58 -108 c-10 -17 -24 -36 -32 -42 -8 -7 -2 7 14 31 32 49 45 57 18 11z
m-108 -130 c-39 -39 -78 -75 -88 -80 -9 -5 20 26 65 70 46 44 85 81 88 81 2 0
-27 -32 -65 -71z"/>
<path d="M2136 3030 c-31 -36 -28 -40 18 -40 44 0 46 1 46 30 0 26 -3 29 -25
28 -14 -1 -32 -9 -39 -18z"/>
<path d="M1800 3009 c0 -32 6 -32 44 0 11 9 16 10 12 4 -4 -7 -2 -13 3 -13 18
0 12 19 -8 30 -36 18 -51 12 -51 -21z"/>
<path d="M1937 2987 c-36 -20 -37 -22 -20 -35 16 -13 16 -14 -9 -8 -16 4 -28
2 -28 -3 0 -5 12 -12 28 -14 26 -4 26 -4 -4 -6 -26 -1 -33 -6 -37 -28 -8 -40
7 -49 41 -24 38 27 40 26 34 -5 -3 -18 -1 -25 6 -20 14 9 13 78 -2 89 -6 5 1
6 17 3 26 -6 27 -5 27 34 0 46 -1 46 -53 17z m-17 -87 c0 -5 -4 -10 -10 -10
-5 0 -10 5 -10 10 0 6 5 10 10 10 6 0 10 -4 10 -10z"/>
<path d="M2000 2979 c0 -17 7 -37 15 -46 8 -8 12 -19 9 -25 -7 -10 43 -68 59
-68 13 0 47 40 47 56 0 8 -17 14 -47 17 l-48 3 48 2 c26 1 47 4 47 7 0 3 -7
17 -16 31 l-17 24 -36 -20 -36 -21 28 26 28 25 -26 10 c-44 17 -55 13 -55 -21z"/>
<path d="M1850 2981 c0 -5 -8 -12 -17 -14 -11 -3 -7 -5 10 -6 18 -1 27 4 27
14 0 8 -4 15 -10 15 -5 0 -10 -4 -10 -9z"/>
<path d="M2128 2950 l17 -30 18 21 c25 31 21 39 -18 39 l-34 0 17 -30z"/>
<path d="M1720 2950 c-9 -16 -8 -18 5 -14 8 4 15 10 15 14 0 5 9 6 20 3 11 -3
20 0 20 6 0 19 -49 12 -60 -9z"/>
<path d="M2185 2945 l-30 -24 33 -1 c30 0 33 2 27 23 -5 20 -5 20 6 3 9 -15
13 -16 20 -5 23 37 -13 40 -56 4z"/>
<path d="M1815 2940 c-3 -5 -1 -17 4 -27 5 -10 12 -27 16 -38 5 -17 8 -17 14
-5 5 8 11 30 14 48 6 29 4 32 -18 32 -13 0 -26 -4 -30 -10z"/>
<path d="M1758 2923 c7 -3 16 -2 19 1 4 3 -2 6 -13 5 -11 0 -14 -3 -6 -6z"/>
<path d="M1769 2860 c-13 -40 -13 -50 -2 -54 7 -3 13 -10 13 -17 0 -6 -6 -9
-13 -6 -7 3 -13 -3 -13 -13 0 -10 5 -16 11 -15 5 2 22 6 38 9 15 4 27 13 27
22 0 11 5 14 16 10 10 -4 14 -1 12 6 -3 7 -18 16 -36 20 -40 11 -51 28 -18 28
30 0 30 0 14 35 -17 38 -32 30 -49 -25z m51 -70 c0 -5 -4 -10 -10 -10 -5 0
-10 5 -10 10 0 6 5 10 10 10 6 0 10 -4 10 -10z"/>
<path d="M1990 2890 c0 -18 -3 -25 -15 -35 -7 -5 -15 -17 -18 -26 -4 -14 1
-15 46 -6 29 6 54 12 56 14 6 4 -51 63 -61 63 -4 0 -8 -4 -8 -10z"/>
<path d="M2356 2874 c-9 -8 -16 -19 -16 -23 0 -11 49 -1 56 10 3 5 0 8 -8 7
-7 -2 -12 3 -10 10 3 16 -3 15 -22 -4z"/>
<path d="M1882 2842 c-15 -12 -21 -24 -16 -35 7 -20 4 -20 43 -6 33 12 39 27
19 47 -15 15 -18 15 -46 -6z"/>
<path d="M2300 2840 c0 -24 15 -27 24 -4 9 22 8 24 -9 24 -8 0 -15 -9 -15 -20z"/>
<path d="M2417 2846 c19 -34 27 -38 34 -19 7 16 8 15 8 -4 1 -26 16 -31 24 -9
7 18 -10 32 -45 38 -18 3 -25 1 -21 -6z"/>
<path d="M2357 2834 c-9 -10 2 -24 19 -24 8 0 14 7 14 15 0 15 -21 21 -33 9z"/>
<path d="M2400 2815 c0 -8 7 -15 15 -15 9 0 12 6 9 15 -4 8 -10 15 -15 15 -5
0 -9 -7 -9 -15z"/>
<path d="M2026 2811 c-3 -5 -14 -7 -24 -4 -27 7 -69 -13 -75 -36 -3 -12 -3
-21 -1 -21 2 0 34 11 71 25 79 30 99 45 61 45 -15 0 -29 -4 -32 -9z"/>
<path d="M2123 2813 c9 -2 23 -2 30 0 6 3 -1 5 -18 5 -16 0 -22 -2 -12 -5z"/>
<path d="M2240 2813 c0 -14 15 -29 33 -36 13 -5 17 -1 17 18 0 20 -5 25 -25
25 -14 0 -25 -3 -25 -7z"/>
<path d="M2090 2789 c0 -8 -3 -24 -6 -36 -6 -20 -3 -21 53 -16 32 3 61 10 65
17 14 21 8 34 -14 35 -13 0 -40 3 -60 7 -29 5 -38 3 -38 -7z"/>
<path d="M2316 2784 c-5 -12 -1 -14 17 -9 35 11 44 25 15 25 -14 0 -29 -7 -32
-16z"/>
<path d="M1901 2781 c-8 -5 -10 -14 -6 -21 6 -9 10 -8 17 4 12 21 7 28 -11 17z"/>
<path d="M1986 2760 l-69 -27 33 -11 c42 -15 60 -15 93 1 24 11 45 52 32 65
-3 3 -5 -1 -5 -9 0 -10 -3 -10 -8 -3 -5 9 -27 4 -76 -16z"/>
<path d="M2220 2765 c0 -20 5 -25 24 -25 37 0 40 17 6 35 -30 15 -30 15 -30
-10z"/>
<path d="M2478 2783 c7 -3 16 -2 19 1 4 3 -2 6 -13 5 -11 0 -14 -3 -6 -6z"/>
<path d="M2517 2784 c-12 -12 -8 -23 13 -34 23 -12 26 -2 7 24 -7 9 -16 14
-20 10z"/>
<path d="M2360 2771 c0 -5 -8 -12 -17 -14 -13 -3 -11 -5 7 -7 23 -1 23 -2 5
-10 -13 -6 -15 -9 -5 -9 25 -1 41 14 34 32 -7 18 -24 23 -24 8z"/>
<path d="M2390 2772 c0 -17 13 -22 27 -10 11 8 12 7 7 -6 -4 -11 -1 -16 10
-16 21 0 21 26 0 34 -22 9 -44 7 -44 -2z"/>
<path d="M2460 2749 c0 -5 5 -7 10 -4 6 3 10 8 10 11 0 2 -4 4 -10 4 -5 0 -10
-5 -10 -11z"/>
<path d="M2493 2735 c0 -10 10 -15 26 -15 25 1 25 1 7 15 -25 19 -33 19 -33 0z"/>
<path d="M2138 2705 c-13 -30 -32 -34 -23 -5 5 15 2 20 -13 20 -12 0 -22 -9
-25 -21 -3 -12 -3 -18 0 -15 4 3 12 1 19 -5 9 -8 29 -7 67 1 47 9 54 14 50 30
-8 31 -60 27 -75 -5z"/>
<path d="M2255 2719 c-4 -6 -4 -13 0 -17 4 -4 10 -1 12 6 6 17 23 15 23 -3 0
-8 6 -15 14 -15 9 0 12 7 9 20 -6 22 -47 28 -58 9z"/>
<path d="M1925 2710 c3 -5 8 -10 11 -10 2 0 4 5 4 10 0 6 -5 10 -11 10 -5 0
-7 -4 -4 -10z"/>
<path d="M2336 2705 c7 -18 0 -15 53 -21 42 -5 43 -4 26 12 -14 14 -21 15 -36
6 -15 -10 -17 -9 -13 3 4 10 0 15 -15 15 -14 0 -19 -5 -15 -15z"/>
<path d="M2460 2680 c0 -6 7 -10 15 -10 8 0 15 2 15 4 0 2 -7 6 -15 10 -8 3
-15 1 -15 -4z"/>
<path d="M2455 2650 c7 -12 52 -14 59 -2 2 4 -11 9 -30 10 -23 2 -33 -1 -29
-8z"/>
<path d="M2420 2630 c-12 -8 -10 -10 8 -10 13 0 20 4 17 10 -7 12 -6 12 -25 0z"/>
<path d="M2516 2631 c-4 -5 3 -7 14 -4 23 6 26 13 6 13 -8 0 -17 -4 -20 -9z"/>
<path d="M2600 2631 c0 -5 5 -13 10 -16 6 -3 10 -2 10 4 0 5 -4 13 -10 16 -5
3 -10 2 -10 -4z"/>
<path d="M2267 2613 c-4 -6 -4 -19 0 -29 5 -13 3 -16 -10 -11 -9 3 -19 2 -22
-3 -7 -11 18 -12 54 -1 23 6 23 6 4 30 -12 15 -22 20 -26 14z"/>
<path d="M2410 2603 c0 -3 7 -15 16 -25 16 -17 18 -17 37 5 l20 22 -5 -28 c-4
-22 -3 -25 8 -16 24 19 -1 49 -41 49 -19 0 -35 -3 -35 -7z"/>
<path d="M2371 2586 c-9 -11 -6 -15 19 -18 32 -5 37 1 18 20 -15 15 -23 15
-37 -2z"/>
<path d="M2350 2552 c0 -15 56 -25 77 -13 16 9 16 10 2 11 -9 0 -31 3 -48 6
-19 4 -31 2 -31 -4z"/>
<path d="M2220 2531 c0 -5 6 -16 13 -23 8 -7 12 -19 9 -27 -3 -10 3 -8 21 5
39 28 35 54 -8 54 -19 0 -35 -4 -35 -9z"/>
<path d="M2534 2529 c-4 -8 0 -9 15 -4 16 5 20 3 15 -9 -3 -8 3 -19 15 -25 29
-16 33 -14 20 12 -19 36 -51 49 -65 26z"/>
<path d="M2350 2522 c0 -4 8 -19 17 -32 l17 -24 6 24 c6 25 -4 40 -27 40 -7 0
-13 -3 -13 -8z"/>
<path d="M2446 2503 c-6 -14 -5 -15 5 -6 7 7 10 15 7 18 -3 3 -9 -2 -12 -12z"/>
<path d="M2293 2494 c-2 -7 -5 -18 -7 -26 -1 -7 -5 -18 -9 -24 -3 -6 2 -19 12
-28 18 -17 21 -17 47 1 l28 18 -29 6 -30 6 28 11 c28 12 32 20 19 37 -10 15
-53 14 -59 -1z"/>
<path d="M2480 2502 c0 -15 11 -21 27 -15 12 5 12 7 1 14 -17 11 -28 11 -28 1z"/>
<path d="M2400 2465 c0 -14 2 -25 4 -25 2 0 11 -3 20 -6 13 -5 14 -2 5 25 -13
37 -29 41 -29 6z"/>
<path d="M2522 2468 c2 -6 10 -14 16 -16 7 -2 10 2 6 12 -7 18 -28 22 -22 4z"/>
<path d="M2560 2460 c6 -12 16 -17 27 -13 14 6 14 8 -3 20 -26 19 -36 16 -24
-7z"/>
<path d="M2440 2456 c0 -22 17 -28 24 -10 9 22 8 24 -9 24 -8 0 -15 -6 -15
-14z"/>
<path d="M2475 2440 c-3 -4 11 -8 31 -8 39 0 39 9 -1 13 -14 2 -27 0 -30 -5z"/>
<path d="M2600 2431 c0 -6 5 -13 10 -16 6 -3 10 1 10 9 0 9 -4 16 -10 16 -5 0
-10 -4 -10 -9z"/>
<path d="M2349 2410 l-24 -19 38 -1 c40 0 40 0 31 24 -8 21 -17 20 -45 -4z"/>
<path d="M2404 2414 c3 -9 6 -18 6 -21 0 -3 8 1 17 8 15 12 16 12 10 -3 -5
-14 -1 -18 18 -18 14 0 25 5 25 11 0 5 5 7 10 4 6 -3 10 1 10 11 0 13 -3 14
-14 5 -11 -10 -21 -9 -45 3 -38 20 -45 20 -37 0z"/>
<path d="M2580 2400 c0 -5 5 -10 10 -10 6 0 10 5 10 10 0 6 -4 10 -10 10 -5 0
-10 -4 -10 -10z"/>
<path d="M2535 2390 c3 -5 13 -10 21 -10 8 0 14 5 14 10 0 6 -9 10 -21 10 -11
0 -17 -4 -14 -10z"/>
<path d="M2281 2356 l-23 -25 52 -26 c29 -14 54 -24 56 -22 3 2 -5 21 -17 42
-20 33 -24 35 -34 21 -15 -20 -25 -21 -25 -1 0 7 8 19 18 24 9 6 12 11 6 11
-6 0 -21 -11 -33 -24z"/>
<path d="M2330 2373 c0 -5 17 -33 38 -63 31 -46 42 -56 71 -58 l34 -3 -22 37
c-12 20 -21 37 -19 38 2 0 16 12 33 26 22 18 25 20 12 4 -23 -28 -22 -34 9
-34 14 0 23 4 19 10 -3 6 -3 15 1 22 5 8 9 6 14 -6 5 -16 7 -15 25 5 l20 22
-33 -5 c-18 -3 -35 -2 -37 2 -2 3 -19 4 -39 2 -25 -3 -33 -8 -29 -18 3 -8 0
-14 -6 -14 -6 0 -11 -16 -11 -37 0 -50 -8 -38 -11 17 -2 25 -7 48 -13 52 -14
10 -56 10 -56 1z"/>
<path d="M2573 2355 c-40 -32 -35 -60 9 -51 18 3 27 2 23 -4 -4 -6 8 -10 27
-9 32 0 33 0 8 11 -14 6 -41 14 -60 18 l-35 8 34 1 c30 1 32 3 20 17 -12 15
-11 16 9 10 16 -6 22 -3 22 8 0 23 -20 19 -57 -9z"/>
<path d="M2642 2360 c0 -14 2 -19 5 -12 2 6 2 18 0 25 -3 6 -5 1 -5 -13z"/>
<path d="M2462 2284 c14 -30 22 -30 35 0 10 21 9 23 -17 24 -27 1 -28 -1 -18
-24z"/>
<path d="M2510 2289 c-15 -26 -7 -34 18 -20 35 19 39 12 6 -8 -18 -11 -35 -24
-38 -30 -9 -14 12 -53 27 -48 20 6 18 24 -5 36 -22 11 -6 8 27 -5 10 -4 15 0
16 12 0 17 1 17 7 2 7 -16 10 -16 50 2 25 12 42 25 40 32 -7 19 -53 21 -71 4
-13 -14 -15 -13 -20 3 -2 11 -14 24 -25 30 -18 9 -23 8 -32 -10z m111 -36 c13
-16 12 -17 -3 -4 -10 7 -18 15 -18 17 0 8 8 3 21 -13z"/>
<path d="M2427 2209 c16 -28 59 -56 70 -46 2 2 -1 17 -7 33 l-12 29 -14 -25
c-14 -23 -13 -12 2 25 5 11 -1 15 -25 15 l-32 0 18 -31z"/>
<path d="M2660 2231 c0 -5 7 -12 16 -15 22 -9 24 -8 24 9 0 8 -9 15 -20 15
-11 0 -20 -4 -20 -9z"/>
<path d="M2650 2202 c0 -4 9 -15 21 -25 19 -17 20 -17 17 0 -4 25 -38 47 -38
25z"/>
<path d="M1532 2144 c-32 -22 -27 -33 12 -20 21 6 32 15 29 23 -7 17 -14 16
-41 -3z"/>
<path d="M1617 2153 c-14 -13 -6 -23 18 -23 16 0 25 6 25 15 0 15 -31 21 -43
8z"/>
<path d="M1820 2150 c0 -5 14 -10 30 -10 17 0 29 -3 28 -7 -1 -5 4 -20 10 -35
8 -19 16 -26 26 -22 20 8 7 34 -30 63 -28 22 -64 28 -64 11z"/>
<path d="M2436 2138 c-7 -28 16 -48 56 -48 29 0 33 6 22 34 -5 14 -9 14 -34 1
-38 -20 -53 -19 -17 1 29 16 28 34 -2 34 -11 0 -21 -10 -25 -22z"/>
<path d="M1765 2140 c-3 -5 -2 -10 4 -10 5 0 13 5 16 10 3 6 2 10 -4 10 -5 0
-13 -4 -16 -10z"/>
<path d="M1860 2090 c0 -19 3 -21 12 -12 9 9 9 15 0 24 -9 9 -12 7 -12 -12z"/>
<path d="M1490 2085 c0 -8 7 -15 15 -15 8 0 15 7 15 15 0 8 -7 15 -15 15 -8 0
-15 -7 -15 -15z"/>
<path d="M1835 2090 c-3 -5 -1 -10 4 -10 6 0 11 5 11 10 0 6 -2 10 -4 10 -3 0
-8 -4 -11 -10z"/>
<path d="M2404 2057 c-9 -16 -14 -30 -12 -32 2 -2 28 10 58 26 36 18 48 28 35
29 -11 1 -30 3 -43 4 -17 2 -27 -5 -38 -27z"/>
<path d="M2510 2062 c0 -5 -21 -15 -47 -21 -31 -8 -43 -15 -34 -20 9 -6 6 -10
-10 -14 -20 -5 -21 -8 -8 -23 13 -16 12 -16 -7 -6 -20 10 -22 8 -28 -20 -3
-17 -6 -43 -6 -58 l0 -27 90 -1 c83 0 91 1 109 24 10 13 24 24 29 24 6 0 14 4
17 10 4 6 -7 8 -27 5 -31 -5 -30 -4 6 7 33 11 37 15 24 25 -11 10 -19 9 -39
-4 -13 -9 -29 -22 -35 -29 -5 -7 -23 -16 -40 -20 -16 -4 -26 -3 -22 1 4 4 0
14 -10 22 -15 13 -15 13 4 4 18 -9 25 -7 38 12 14 19 15 19 9 2 -7 -20 -7 -20
22 -1 54 33 82 76 49 76 -8 0 -12 -4 -9 -10 3 -5 1 -10 -4 -10 -6 0 -11 5 -11
12 0 6 -7 3 -15 -8 -14 -17 -14 -17 -9 -1 5 13 2 18 -7 17 -28 -4 -44 2 -21 8
26 8 31 25 8 30 -9 2 -16 -1 -16 -6z m-27 -39 c-7 -2 -19 -2 -25 0 -7 3 -2 5
12 5 14 0 19 -2 13 -5z m-27 -129 c-9 -8 -24 -14 -34 -11 -14 3 -13 6 8 15 36
15 44 14 26 -4z m78 -5 c-6 -11 -24 -2 -24 11 0 5 7 7 15 4 8 -4 12 -10 9 -15z"/>
<path d="M2717 2054 c-13 -14 6 -24 21 -12 12 10 14 10 8 1 -5 -9 0 -13 13
-13 14 0 19 5 15 15 -6 15 -45 21 -57 9z"/>
<path d="M1863 2029 c4 -13 7 -34 7 -46 0 -13 6 -23 14 -23 10 0 13 12 12 42
-1 33 -5 44 -20 46 -15 3 -18 0 -13 -19z"/>
<path d="M2652 2041 c-10 -6 -10 -10 1 -20 12 -9 16 -7 20 9 5 21 0 25 -21 11z"/>
<path d="M2686 2034 c-8 -20 -4 -25 11 -16 7 4 9 13 4 21 -6 10 -10 9 -15 -5z"/>
<path d="M1479 2022 c-1 -12 -2 -27 -3 -34 -1 -6 4 -13 10 -15 6 -2 9 9 8 28
-3 37 -13 51 -15 21z"/>
<path d="M1520 2000 c0 -19 3 -21 12 -12 9 9 9 15 0 24 -9 9 -12 7 -12 -12z"/>
<path d="M2617 2006 c-4 -10 0 -12 14 -9 10 3 16 9 13 14 -8 13 -21 11 -27 -5z"/>
<path d="M2732 2008 c-16 -16 -15 -38 1 -38 22 0 28 12 15 29 -10 13 -10 14 2
4 19 -17 30 -16 30 2 0 18 -31 20 -48 3z"/>
<path d="M2790 2007 c0 -8 8 -18 18 -20 16 -4 16 -5 0 -6 -10 0 -18 -8 -18
-16 0 -17 2 -18 24 -9 22 8 20 27 -4 49 -17 16 -20 16 -20 2z"/>
<path d="M2676 1991 c-3 -5 -16 -7 -27 -4 -15 4 -20 2 -17 -7 2 -8 17 -15 32
-17 23 -3 27 -1 22 13 -5 14 -4 15 9 4 12 -10 15 -10 15 4 0 17 -25 22 -34 7z"/>
<path d="M2840 1961 c0 -14 6 -21 18 -20 10 0 12 3 4 6 -6 2 -10 9 -7 13 3 5
1 11 -5 15 -5 3 -10 -3 -10 -14z"/>
<path d="M2740 1960 c-12 -8 -12 -10 5 -10 16 0 17 -2 5 -10 -9 -5 -19 -5 -27
2 -10 8 -13 4 -13 -16 0 -31 10 -33 32 -7 8 10 22 21 29 23 7 2 9 10 5 16 -9
14 -16 15 -36 2z"/>
<path d="M1824 1935 c-3 -14 -4 -28 -1 -31 10 -10 27 7 27 26 0 30 -19 33 -26
5z"/>
<path d="M2664 1934 c3 -9 9 -26 12 -39 8 -34 31 -10 26 27 -3 20 -10 28 -24
28 -14 0 -18 -5 -14 -16z"/>
<path d="M1522 1899 c2 -18 9 -34 16 -37 10 -3 13 5 10 29 -2 18 -9 34 -16 37
-10 3 -13 -5 -10 -29z"/>
<path d="M2876 1921 c-4 -5 0 -12 6 -14 8 -3 6 -6 -4 -6 -20 -1 -22 -9 -9 -30
6 -9 11 -10 15 -2 4 6 11 9 16 6 5 -3 12 0 16 6 4 8 3 9 -4 5 -8 -5 -12 2 -12
18 0 26 -13 35 -24 17z"/>
<path d="M2770 1916 c0 -2 7 -7 16 -10 8 -3 12 -2 9 4 -6 10 -25 14 -25 6z"/>
<path d="M2730 1895 c-10 -13 -9 -15 9 -15 12 0 21 6 21 15 0 8 -4 15 -9 15
-5 0 -14 -7 -21 -15z"/>
<path d="M2825 1890 c10 -11 22 -20 27 -20 5 0 4 9 -2 20 -6 11 -18 20 -27 20
-14 0 -14 -2 2 -20z"/>
<path d="M2777 1889 c7 -7 15 -10 18 -7 3 3 -2 9 -12 12 -14 6 -15 5 -6 -5z"/>
<path d="M2964 1865 c11 -8 27 -15 35 -15 11 0 10 4 -5 15 -10 8 -26 14 -34
14 -11 0 -10 -3 4 -14z"/>
<path d="M1480 1866 c0 -5 12 -24 26 -43 17 -23 33 -33 47 -31 31 5 32 26 0
26 -18 0 -35 9 -50 28 -13 16 -23 25 -23 20z"/>
<path d="M2800 1850 c6 -11 13 -20 15 -20 3 0 5 9 5 20 0 11 -7 20 -15 20 -13
0 -14 -4 -5 -20z"/>
<path d="M2920 1860 c0 -5 7 -10 16 -10 8 0 12 5 9 10 -3 6 -10 10 -16 10 -5
0 -9 -4 -9 -10z"/>
<path d="M2830 1839 c0 -18 2 -19 15 -9 8 7 15 16 15 21 0 5 -7 9 -15 9 -9 0
-15 -9 -15 -21z"/>
<path d="M2780 1828 c0 -15 5 -39 11 -55 8 -22 12 -24 19 -13 14 22 12 30 -7
31 -17 0 -16 1 0 8 18 6 18 8 -2 31 l-20 25 -1 -27z"/>
<path d="M2861 1826 c-11 -13 -10 -17 3 -22 22 -8 30 1 19 21 -9 15 -11 15
-22 1z"/>
<path d="M2910 1827 c0 -7 5 -18 12 -25 9 -9 8 -12 -5 -12 -9 0 -17 -7 -17
-16 0 -11 6 -14 23 -10 12 3 16 3 10 0 -22 -10 -14 -24 12 -24 26 0 35 24 13
34 -10 5 -10 7 0 12 6 3 12 17 12 31 0 25 0 25 -27 7 -24 -15 -26 -15 -14 -1
12 15 11 17 -3 17 -9 0 -16 -6 -16 -13z"/>
<path d="M2980 1815 c0 -9 5 -13 10 -10 6 3 10 1 10 -4 0 -14 37 -14 46 0 3 6
2 15 -4 21 -6 6 -12 6 -16 -1 -4 -6 -2 -11 5 -11 7 0 9 -3 6 -6 -4 -4 -18 1
-32 10 -22 15 -25 15 -25 1z"/>
<path d="M1648 1793 c12 -2 30 -2 40 0 9 3 -1 5 -23 4 -22 0 -30 -2 -17 -4z"/>
<path d="M2850 1791 c0 -10 22 -31 32 -31 17 0 7 28 -12 33 -11 3 -20 2 -20
-2z"/>
<path d="M2826 1775 c-10 -27 -7 -35 13 -35 28 0 33 15 12 34 -17 15 -19 16
-25 1z"/>
<path d="M3015 1770 c3 -5 13 -6 22 -3 10 4 14 2 10 -4 -4 -6 0 -13 8 -17 9
-3 15 0 15 8 0 14 -21 26 -46 26 -9 0 -13 -4 -9 -10z"/>
<path d="M2757 1764 c-7 -8 2 -34 22 -59 11 -14 7 -12 -12 4 l-27 24 0 -27 c0
-24 3 -27 28 -24 32 4 47 48 15 48 -14 0 -15 2 -4 9 7 5 10 14 7 20 -8 12 -19
14 -29 5z"/>
<path d="M2980 1755 c0 -9 6 -12 15 -9 8 4 12 10 9 15 -8 14 -24 10 -24 -6z"/>
<path d="M2842 1733 c-20 -4 -21 -7 -10 -21 10 -12 10 -14 1 -8 -8 4 -13 2
-13 -4 0 -17 21 -7 38 18 8 12 13 21 11 21 -2 -1 -14 -4 -27 -6z"/>
<path d="M2905 1720 c-7 -23 4 -50 21 -50 19 0 18 9 -3 34 -10 12 -3 8 15 -9
l34 -30 -4 29 c-2 22 -10 31 -30 37 -21 5 -29 3 -33 -11z"/>
<path d="M2990 1721 c-15 -28 -12 -51 5 -51 13 0 14 4 4 23 -11 20 -11 21 4 8
15 -12 17 -11 17 13 0 31 -15 34 -30 7z"/>
<path d="M2870 1716 c-12 -15 -12 -19 1 -27 10 -6 7 -9 -13 -9 -15 0 -30 -4
-33 -10 -9 -14 37 -12 56 3 10 8 13 21 9 36 -5 22 -6 22 -20 7z"/>
<path d="M2759 1657 c12 -15 116 -23 125 -9 3 5 -16 7 -44 4 -33 -3 -50 -1
-50 7 0 6 -10 11 -21 11 -17 0 -19 -3 -10 -13z"/>
<path d="M2718 1642 c-32 -37 -31 -44 3 -27 43 22 42 20 26 34 -11 8 -17 7
-29 -7z"/>
<path d="M2900 1651 c0 -5 9 -7 20 -4 11 3 20 7 20 9 0 2 -9 4 -20 4 -11 0
-20 -4 -20 -9z"/>
<path d="M2780 1620 c0 -12 8 -12 35 0 18 8 17 9 -7 9 -16 1 -28 -3 -28 -9z"/>
<path d="M2740 1610 c-13 -8 -13 -10 2 -10 9 0 20 5 23 10 8 13 -5 13 -25 0z"/>
<path d="M2823 1610 c-29 -12 -29 -17 1 -22 15 -3 27 2 35 14 13 21 2 23 -36
8z"/>
<path d="M2565 1575 c-14 -68 -15 -65 21 -65 19 0 34 3 34 8 0 4 -11 25 -24
47 l-24 40 -7 -30z"/>
<path d="M2601 1578 c22 -42 31 -51 40 -36 14 22 10 34 -16 46 -35 16 -37 15
-24 -10z"/>
<path d="M2770 1580 c0 -5 12 -10 28 -11 23 0 24 -2 7 -8 -19 -8 -19 -8 0 -20
18 -11 17 -12 -7 -6 -26 5 -27 4 -16 -20 6 -13 15 -22 21 -18 5 3 4 8 -3 13
-8 5 -3 10 14 14 34 8 34 39 1 54 -32 15 -45 15 -45 2z"/>
<path d="M2730 1570 c-13 -8 -12 -10 3 -10 9 0 17 5 17 10 0 12 -1 12 -20 0z"/>
<path d="M2657 1549 c-4 -16 -3 -18 9 -8 7 6 11 15 8 20 -8 13 -11 11 -17 -12z"/>
<path d="M2850 1486 c0 -9 5 -16 10 -16 6 0 10 4 10 9 0 6 -4 13 -10 16 -5 3
-10 -1 -10 -9z"/>
<path d="M2851 1438 c-5 -14 -5 -24 1 -26 5 -2 3 -11 -4 -20 -12 -15 -11 -16
4 -3 10 7 16 17 13 21 -3 5 -1 11 5 15 13 8 13 35 0 35 -6 0 -14 -10 -19 -22z"/>
<path d="M2796 1440 c-14 -4 -16 -9 -8 -14 7 -4 17 -4 22 -1 21 13 9 -17 -17
-41 -20 -18 -23 -24 -10 -20 10 3 22 6 27 6 12 0 22 49 13 64 -5 8 -15 11 -27
6z"/>
<path d="M2721 1421 c-10 -6 -10 -10 -1 -16 13 -8 24 -1 19 14 -3 6 -10 7 -18
2z"/>
<path d="M2749 1409 c-6 -11 -8 -28 -4 -37 6 -15 9 -14 26 7 23 28 24 37 4 45
-9 3 -19 -3 -26 -15z"/>
<path d="M2565 1393 c7 -29 32 -63 47 -63 4 0 8 9 8 21 0 16 -4 19 -22 14 -21
-6 -22 -5 -6 8 17 13 17 15 0 31 -27 23 -35 20 -27 -11z"/>
<path d="M2655 1396 c-18 -13 -18 -14 2 -24 18 -10 21 -8 25 13 6 28 0 31 -27
11z"/>
<path d="M2694 1386 c-8 -21 3 -49 16 -41 5 3 10 15 10 25 0 25 -18 36 -26 16z"/>
<path d="M2632 1343 c2 -14 8 -28 14 -30 17 -6 26 27 13 43 -18 22 -31 16 -27
-13z"/>
<path d="M2677 1334 c-14 -15 -6 -34 14 -34 14 0 19 5 17 17 -3 18 -20 27 -31
17z"/>
<path d="M2515 1310 c-11 -12 -20 -27 -21 -34 -2 -15 42 -43 52 -33 13 12 -6
37 -28 38 -22 1 -22 1 2 8 14 4 26 15 28 24 5 23 -11 21 -33 -3z"/>
<path d="M2580 1320 c0 -5 7 -10 16 -10 8 0 12 5 9 10 -3 6 -10 10 -16 10 -5
0 -9 -4 -9 -10z"/>
<path d="M2562 1270 c0 -14 2 -19 5 -12 2 6 2 18 0 25 -3 6 -5 1 -5 -13z"/>
<path d="M2605 1280 c3 -5 11 -7 18 -4 7 2 12 -5 13 -18 0 -13 4 -32 8 -43 6
-14 2 -12 -10 6 -11 14 -25 24 -32 22 -7 -3 -10 1 -6 11 3 9 1 16 -5 16 -6 0
-10 -12 -9 -26 3 -27 49 -61 68 -49 14 9 12 69 -2 83 -14 14 -52 16 -43 2z"/>
<path d="M2695 1280 c3 -5 8 -10 11 -10 2 0 4 5 4 10 0 6 -5 10 -11 10 -5 0
-7 -4 -4 -10z"/>
<path d="M2676 1254 c-15 -40 -6 -73 24 -89 37 -19 46 -19 30 0 -7 8 -20 15
-29 15 -12 0 -16 10 -18 38 -1 31 0 33 8 15 10 -26 22 -29 38 -9 10 11 7 17
-11 30 -28 20 -34 20 -42 0z"/>
<path d="M2767 1223 c-2 -5 -2 -25 1 -46 4 -33 7 -37 26 -31 18 6 19 5 8 -9
-9 -10 -10 -17 -2 -22 5 -3 11 0 12 7 0 7 2 20 3 28 1 8 -10 28 -24 45 l-26
30 28 -24 c28 -26 38 -14 11 13 -17 17 -30 20 -37 9z"/>
<path d="M2726 1207 c-16 -12 -15 -14 8 -36 l26 -24 0 24 c0 38 -13 52 -34 36z"/>
<path d="M2536 1176 c-12 -19 -16 -38 -12 -60 5 -29 5 -30 -7 -8 -13 22 -14
22 -29 5 -16 -18 -21 -56 -7 -47 5 3 18 0 31 -7 18 -10 24 -8 35 7 12 16 13
16 13 1 0 -20 16 -21 49 -3 l24 13 -27 18 c-23 15 -29 16 -36 5 -6 -9 -10 7
-12 45 l-3 59 -19 -28z"/>
<path d="M5345 2861 c-3 -5 -1 -12 5 -16 12 -7 30 2 30 16 0 12 -27 12 -35 0z"/>
<path d="M1404 2439 c-6 -11 19 -22 40 -17 11 2 9 6 -9 15 -15 6 -27 7 -31 2z"/>
<path d="M4963 2485 c-9 -25 4 -29 17 -6 7 15 7 21 0 21 -6 0 -13 -7 -17 -15z"/>
<path d="M5000 2481 c0 -5 5 -13 10 -16 6 -3 10 -2 10 4 0 5 -4 13 -10 16 -5
3 -10 2 -10 -4z"/>
<path d="M935 2319 c-4 -6 -5 -12 -2 -15 2 -3 7 2 10 11 7 17 1 20 -8 4z"/>
<path d="M1005 2319 c-4 -6 -13 -8 -20 -5 -25 9 -24 -7 1 -27 23 -18 27 -18
41 -4 9 8 13 23 10 31 -7 18 -23 21 -32 5z"/>
<path d="M890 2305 c-7 -9 -10 -18 -7 -21 3 -3 10 4 17 15 13 25 8 27 -10 6z"/>
<path d="M1060 2208 c0 -19 2 -20 10 -8 13 19 13 30 0 30 -5 0 -10 -10 -10
-22z"/>
<path d="M810 2020 c0 -5 7 -10 15 -10 8 0 15 5 15 10 0 6 -7 10 -15 10 -8 0
-15 -4 -15 -10z"/>
<path d="M880 1974 c0 -30 20 -44 60 -44 l35 0 -30 16 c-16 8 -38 23 -47 31
-17 15 -18 15 -18 -3z"/>
<path d="M5455 2171 c-3 -5 -1 -12 5 -16 12 -7 30 2 30 16 0 12 -27 12 -35 0z"/>
<path d="M5275 1790 c-9 -15 3 -30 24 -30 21 0 44 23 34 33 -10 11 -51 8 -58
-3z"/>
<path d="M3906 1685 c4 -8 8 -15 10 -15 2 0 4 7 4 15 0 8 -4 15 -10 15 -5 0
-7 -7 -4 -15z"/>
<path d="M4515 1620 c-3 -5 3 -10 14 -10 12 0 21 5 21 10 0 6 -6 10 -14 10 -8
0 -18 -4 -21 -10z"/>
<path d="M4765 1390 c3 -5 10 -10 16 -10 5 0 9 5 9 10 0 6 -7 10 -16 10 -8 0
-12 -4 -9 -10z"/>
<path d="M3735 1300 c4 -6 11 -8 16 -5 14 9 11 15 -7 15 -8 0 -12 -5 -9 -10z"/>
<path d="M3487 1249 c4 -13 8 -18 11 -10 2 7 -1 18 -6 23 -8 8 -9 4 -5 -13z"/>
<path d="M4508 1029 c-24 -13 -23 -25 3 -32 13 -3 22 0 26 9 8 22 -9 35 -29
23z"/>
<path d="M4900 860 c0 -5 7 -10 16 -10 8 0 12 5 9 10 -3 6 -10 10 -16 10 -5 0
-9 -4 -9 -10z"/>
</g>
</svg>
